<svg xmlns="http://www.w3.org/2000/svg" xmlns:xlink="http://www.w3.org/1999/xlink" xmlns:lucid="lucid" width="1419" height="761"><g transform="translate(1200 1740)" lucid:page-tab-id="2VA.F4~bzETF"><path d="M-940-1540.9a6 6 0 0 1 6-6h888a6 6 0 0 1 6 6v334.9a6 6 0 0 1-6 6h-888a6 6 0 0 1-6-6z" fill="#f2f3f5"/><path d="M-915.18-1546.8l19.75-.02m9.88 0h19.75m9.88 0h19.75m9.88 0h19.76m9.88 0h19.76m9.87 0h19.76m9.87 0h19.76m9.88 0H-688m9.87 0l19.75-.02m9.88 0h19.75m9.88 0h19.75m9.88 0h19.75m9.9 0h19.75m9.87 0h19.76m9.87 0h19.76m9.9 0h19.74m9.88 0l19.75-.02m9.88 0h19.75m9.88 0h19.75m9.88 0h19.76m9.88 0h19.76m9.87 0h19.76m9.87 0h19.76m9.88 0h19.75m9.87 0l19.75-.02m9.88 0h19.75m9.88 0h19.75m9.88 0h19.76m9.87 0h19.75m9.87 0H-46l.94.07.9.2.88.37.8.5.72.6.6.72.5.8.37.86.23.9v10.2m0 10.17v20.35m0 10.18v20.35m0 10.2l.02 20.34m0 10.18v20.35m0 10.18v20.35m0 10.18l.02 20.35m0 10.18v20.36m0 10.17v20.36m0 10.16l.02 20.36m0 10.17v20.35m0 10.17v10.18l-.07.94-.22.9-.35.88-.5.8-.6.72-.72.6-.8.5-.88.37-.9.23h-9.9m-9.86 0h-19.77m-9.88 0h-19.75m-9.88 0h-19.75m-9.88 0h-19.76m-9.88 0h-19.75m-9.87 0h-19.76m-9.87 0h-19.76m-9.87 0l-19.76.02m-9.87 0h-19.75m-9.88 0h-19.75m-9.88 0h-19.75m-9.88 0h-19.75m-9.9 0h-19.74m-9.88 0h-19.76m-9.87 0h-19.76m-9.88 0l-19.76.02m-9.88 0h-19.75m-9.88 0h-19.75m-9.88 0h-19.75m-9.88 0h-19.76m-9.88 0h-19.75m-9.87 0h-19.76m-9.87 0h-19.76m-9.87 0l-19.76.02m-9.87 0h-19.75m-9.88 0h-19.75m-9.88 0h-19.75m-9.88 0h-19.75m-9.9 0h-19.75m-9.87 0H-934l-.94-.07-.9-.22-.88-.35-.8-.5-.72-.6-.6-.72-.5-.8-.37-.88-.23-.9v-10.2m0-10.16v-20.37m0-10.17v-20.36m0-10.17l-.02-20.36m0-10.17v-20.36m0-10.17v-20.36m0-10.16l-.02-20.36m0-10.17v-20.35m0-10.17v-20.35m0-10.18L-940-1490m0-10.18v-20.35m0-10.18v-10.2l.07-.93.22-.9.35-.88.5-.8.6-.73.72-.6.8-.5.88-.36.9-.2h9.9" stroke="#3a414a" stroke-width="2" fill="none"/><path d="M-900-1434a6 6 0 0 1 6-6h216a6 6 0 0 1 6 6v45a6 6 0 0 1-6 6h-216a6 6 0 0 1-6-6z" stroke="#3a414a" fill="#b8f5ed"/><path d="M-888-1431a6 6 0 0 1 6-6h216a6 6 0 0 1 6 6v45a6 6 0 0 1-6 6h-216a6 6 0 0 1-6-6z" stroke="#3a414a" fill="#b8f5ed"/><use xlink:href="#a" transform="matrix(1,0,0,1,-877.9993904959952,-1440) translate(58.425925925925924 34.44444444444444)"/><use xlink:href="#b" transform="matrix(1,0,0,1,-877.9993904959952,-1440) translate(98.42592592592592 34.44444444444444)"/><path d="M-900-1514a6 6 0 0 1 6-6h228a6 6 0 0 1 6 6v48a6 6 0 0 1-6 6h-228a6 6 0 0 1-6-6z" stroke="#3a414a" fill="#b8f5ed"/><use xlink:href="#c" transform="matrix(1,0,0,1,-879.9993904959952,-1520) translate(12.870370370370367 34.44444444444444)"/><use xlink:href="#d" transform="matrix(1,0,0,1,-879.9993904959952,-1520) translate(95.95679012345678 34.44444444444444)"/><path d="M-659.04-1490h42.16" stroke="#3a414a" fill="none"/><path d="M-659.02-1489.5h-.5l-.02-1h.52z" stroke="#3a414a" stroke-width=".05" fill="#3a414a"/><path d="M-602.12-1490l-14.26 4.64v-9.28z" stroke="#3a414a" fill="#3a414a"/><path d="M-659.04-1410h42.16" stroke="#3a414a" fill="none"/><path d="M-659.03-1409.5h-.5v-1h.5z" stroke="#3a414a" stroke-width=".05" fill="#3a414a"/><path d="M-602.12-1410l-14.26 4.64v-9.28z" stroke="#3a414a" fill="#3a414a"/><path d="M0-1514a6 6 0 0 1 6-6h168a6 6 0 0 1 6 6v128a6 6 0 0 1-6 6H6a6 6 0 0 1-6-6z" stroke="#3a414a" fill="#ffd9d9"/><use xlink:href="#e" transform="matrix(1,0,0,1,20.000609504004842,-1520.0000000000002) translate(37.31481481481481 61.111111111111114)"/><use xlink:href="#f" transform="matrix(1,0,0,1,20.000609504004842,-1520.0000000000002) translate(26.327160493827158 87.77777777777777)"/><path d="M-99.54-1490h82.67" stroke="#3a414a" fill="none"/><path d="M-99.52-1489.5h-.5l-.02-1h.52z" stroke="#3a414a" stroke-width=".05" fill="#3a414a"/><path d="M-2.1-1490l-14.27 4.64v-9.28z" stroke="#3a414a" fill="#3a414a"/><path d="M-99.54-1410h82.72" stroke="#3a414a" fill="none"/><path d="M-99.52-1409.5h-.5l-.02-1h.52z" stroke="#3a414a" stroke-width=".05" fill="#3a414a"/><path d="M-2.06-1410l-14.26 4.64v-9.28z" stroke="#3a414a" fill="#3a414a"/><path d="M-414-1520c7.73 0 14 6.27 14 14v112c0 7.73-6.27 14-14 14h-172c-7.73 0-14-6.27-14-14v-112c0-7.73 6.27-14 14-14z" stroke="#3a414a" fill="#c3f7c8"/><use xlink:href="#g" transform="matrix(1,0,0,1,-579.9993904959953,-1520) translate(15.462962962962962 74.44444444444444)"/><use xlink:href="#h" transform="matrix(1,0,0,1,-579.9993904959953,-1520) translate(58.36419753086419 74.44444444444444)"/><path d="M-340-1514a6 6 0 0 1 6-6h228a6 6 0 0 1 6 6v48a6 6 0 0 1-6 6h-228a6 6 0 0 1-6-6z" fill="#b8f5ed"/><path d="M-100-1520h-234a6 6 0 0 0-6 6v48a6 6 0 0 0 6 6h234" stroke="#3a414a" fill="none"/><use xlink:href="#i" transform="matrix(1,0,0,1,-291.9993904959954,-1508) translate(3.327160493827165 22.444444444444443)"/><use xlink:href="#j" transform="matrix(1,0,0,1,-291.9993904959954,-1508) translate(61.84567901234568 22.444444444444443)"/><path d="M-340-1434a6 6 0 0 1 6-6h228a6 6 0 0 1 6 6v48a6 6 0 0 1-6 6h-228a6 6 0 0 1-6-6z" fill="#b8f5ed"/><path d="M-100-1440h-234a6 6 0 0 0-6 6v48a6 6 0 0 0 6 6h234" stroke="#3a414a" fill="none"/><use xlink:href="#i" transform="matrix(1,0,0,1,-291.9993904959954,-1428) translate(7.648148148148152 22.444444444444443)"/><use xlink:href="#k" transform="matrix(1,0,0,1,-291.9993904959954,-1428) translate(66.16666666666666 22.444444444444443)"/><path d="M-399-1490h42.15" stroke="#3a414a" fill="none"/><path d="M-399-1489.5h-.5v-1h.5z" stroke="#3a414a" stroke-width=".05" fill="#3a414a"/><path d="M-342.08-1490l-14.27 4.64v-9.28z" stroke="#3a414a" fill="#3a414a"/><path d="M-399-1410h42.15" stroke="#3a414a" fill="none"/><path d="M-399-1409.5h-.5v-1h.5z" stroke="#3a414a" stroke-width=".05" fill="#3a414a"/><path d="M-342.08-1410l-14.27 4.64v-9.28z" stroke="#3a414a" fill="#3a414a"/><path d="M-340-1314a6 6 0 0 1 6-6h188a6 6 0 0 1 6 6v88a6 6 0 0 1-6 6h-188a6 6 0 0 1-6-6z" stroke="#3a414a" fill="#c3f7c8"/><use xlink:href="#l" transform="matrix(1,0,0,1,-319.99908574399285,-1320) translate(39.38271604938271 54.44444444444444)"/><path d="M-240-1379.04v42.19" stroke="#3a414a" fill="none"/><path d="M-239.5-1379.54v.5h-1v-.5z" stroke="#3a414a" stroke-width=".05" fill="#3a414a"/><path d="M-240-1322.08l-4.63-14.27h9.27z" stroke="#3a414a" fill="#3a414a"/><path d="M-600-1154.44a6 6 0 0 1 6-6h188a6 6 0 0 1 6 6v127.9a6 6 0 0 1-6 6h-188a6 6 0 0 1-6-6z" stroke="#3a414a" fill="#cfe4ff"/><use xlink:href="#m" transform="matrix(1,0,0,1,-580,-1160.4406125986218) translate(15.06172839506172 61.111111111111114)"/><use xlink:href="#n" transform="matrix(1,0,0,1,-580,-1160.4406125986218) translate(62.4074074074074 61.111111111111114)"/><use xlink:href="#o" transform="matrix(1,0,0,1,-580,-1160.4406125986218) translate(46.26543209876543 87.77777777777777)"/><path d="M141.66-1379.06v322.5a6 6 0 0 1-6 6H16.86" stroke="#3a414a" fill="none"/><path d="M142.16-1379.05h-1v-.5h1z" stroke="#3a414a" stroke-width=".05" fill="#3a414a"/><path d="M2.08-1050.55l14.27-4.64v9.28z" stroke="#3a414a" fill="#3a414a"/><path d="M-240.96-1050.55h-142.17" stroke="#3a414a" fill="none"/><path d="M-240.46-1050.05h-.52v-1h.52z" stroke="#3a414a" stroke-width=".05" fill="#3a414a"/><path d="M-397.9-1050.55l14.27-4.64v9.28z" stroke="#3a414a" fill="#3a414a"/><path d="M-880-1313.94a6 6 0 0 1 6-6h188a6 6 0 0 1 6 6v88.05a6 6 0 0 1-6 6h-188a6 6 0 0 1-6-6z" stroke="#3a414a" fill="#c3f7c8"/><use xlink:href="#p" transform="matrix(1,0,0,1,-859.9993904959954,-1319.944024513136) translate(30.4320987654321 41.611111111111114)"/><use xlink:href="#q" transform="matrix(1,0,0,1,-859.9993904959954,-1319.944024513136) translate(87.77777777777779 41.611111111111114)"/><use xlink:href="#r" transform="matrix(1,0,0,1,-859.9993904959954,-1319.944024513136) translate(35.74074074074073 68.27777777777777)"/><path d="M-600.96-1269.9h-62.2" stroke="#3a414a" fill="none"/><path d="M-600.46-1269.4h-.52v-1h.52z" stroke="#3a414a" stroke-width=".05" fill="#3a414a"/><path d="M-677.92-1269.9l14.27-4.62v9.27z" stroke="#3a414a" fill="#3a414a"/><path d="M-500-1379v62.12" stroke="#3a414a" fill="none"/><path d="M-499.5-1379h-1v-.5h1z" stroke="#3a414a" stroke-width=".05" fill="#3a414a"/><path d="M-500-1302.12l-4.63-14.26h9.27z" stroke="#3a414a" fill="#3a414a"/><path d="M-399.06-1131.1H-246a6 6 0 0 0 6-6v-66.05" stroke="#3a414a" fill="none"/><path d="M-399.05-1130.6h-.5v-1h.5z" stroke="#3a414a" stroke-width=".05" fill="#3a414a"/><path d="M-240-1217.92l4.64 14.27h-9.27z" stroke="#3a414a" fill="#3a414a"/><path d="M-80-1294.06a6 6 0 0 1 6-6h188a6 6 0 0 1 6 6v48a6 6 0 0 1-6 6H-74a6 6 0 0 1-6-6z" fill="#b8f5ed"/><path d="M120-1300.06H-74a6 6 0 0 0-6 6v48a6 6 0 0 0 6 6h194" stroke="#3a414a" fill="none"/><use xlink:href="#s" transform="matrix(1,0,0,1,-39.999390495995144,-1288.055975486864) translate(14.413580246913575 17.77777777777778)"/><use xlink:href="#t" transform="matrix(1,0,0,1,-39.999390495995144,-1288.055975486864) translate(29.814814814814817 44.44444444444444)"/><path d="M-900-1154.27a6 6 0 0 1 6-6h228a6 6 0 0 1 6 6v48a6 6 0 0 1-6 6h-228a6 6 0 0 1-6-6z" fill="#ffdda6"/><path d="M-660-1160.27h-234a6 6 0 0 0-6 6v48a6 6 0 0 0 6 6h234" stroke="#3a414a" fill="none"/><use xlink:href="#u" transform="matrix(1,0,0,1,-852,-1148.2726861380295) translate(18.265432098765437 17.77777777777778)"/><use xlink:href="#v" transform="matrix(1,0,0,1,-852,-1148.2726861380295) translate(31.413580246913583 44.44444444444444)"/><path d="M-900-1074.27a6 6 0 0 1 6-6h228a6 6 0 0 1 6 6v48a6 6 0 0 1-6 6h-228a6 6 0 0 1-6-6z" fill="#ffdda6"/><path d="M-660-1080.27h-234a6 6 0 0 0-6 6v48a6 6 0 0 0 6 6h234" stroke="#3a414a" fill="none"/><use xlink:href="#w" transform="matrix(1,0,0,1,-852,-1068.2726861380295) translate(0.9506172839506206 22.444444444444443)"/><use xlink:href="#v" transform="matrix(1,0,0,1,-852,-1068.2726861380295) translate(61.876543209876544 22.444444444444443)"/><path d="M-600-1294a6 6 0 0 1 6-6h188a6 6 0 0 1 6 6v48.06a6 6 0 0 1-6 6h-188a6 6 0 0 1-6-6z" fill="#b8f5ed"/><path d="M-400-1300h-194a6 6 0 0 0-6 6v48.06a6 6 0 0 0 6 6h194" stroke="#3a414a" fill="none"/><use xlink:href="#x" transform="matrix(1,0,0,1,-559.9993904959953,-1287.9888049026272) translate(15.15432098765433 17.77777777777778)"/><use xlink:href="#y" transform="matrix(1,0,0,1,-559.9993904959953,-1287.9888049026272) translate(31.01851851851852 44.44444444444444)"/><path d="M-600-1694a6 6 0 0 1 6-6h178a6 6 0 0 1 6 6v102a6 6 0 0 1-6 6h-178a6 6 0 0 1-6-6z" stroke="#3a414a" fill="#fff7a1"/><path d="M-590-1688a6 6 0 0 1 6-6h178a6 6 0 0 1 6 6v102a6 6 0 0 1-6 6h-178a6 6 0 0 1-6-6z" stroke="#3a414a" fill="#fff7a1"/><use xlink:href="#z" transform="matrix(1,0,0,1,-577.9993904959953,-1700) translate(4.598765432098773 51.111111111111114)"/><use xlink:href="#A" transform="matrix(1,0,0,1,-577.9993904959953,-1700) translate(106.14197530864197 51.111111111111114)"/><use xlink:href="#B" transform="matrix(1,0,0,1,-577.9993904959953,-1700) translate(40.03086419753087 77.77777777777777)"/><path d="M-500-1579.03v42.15" stroke="#3a414a" fill="none"/><path d="M-499.5-1579.02h-1v-.5h1z" stroke="#3a414a" stroke-width=".05" fill="#3a414a"/><path d="M-500-1522.12l-4.63-14.26h9.27z" stroke="#3a414a" fill="#3a414a"/><path d="M-139.04-1270h29a.03.03 0 0 0 .04-.03.03.03 0 0 1 .03-.03h13.12" stroke="#3a414a" fill="none"/><path d="M-139.02-1269.5h-.52v-1h.52z" stroke="#3a414a" stroke-width=".05" fill="#3a414a"/><path d="M-82.08-1270.06l-14.27 4.64v-9.27z" stroke="#3a414a" fill="#3a414a"/><path d="M60.33-1301.06v-62.08" stroke="#3a414a" fill="none"/><path d="M60.83-1300.56h-1v-.5h1z" stroke="#3a414a" stroke-width=".05" fill="#3a414a"/><path d="M60.33-1377.9l4.64 14.26H55.7z" stroke="#3a414a" fill="#3a414a"/><path d="M-399.54-1269.97h29.28v-.02h13.42" stroke="#3a414a" fill="none"/><path d="M-399.52-1269.47h-.5l-.02-1h.52z" stroke="#3a414a" stroke-width=".05" fill="#3a414a"/><path d="M-342.08-1270l-14.27 4.64v-9.28z" stroke="#3a414a" fill="#3a414a"/><path d="M-1160-1154.27a6 6 0 0 1 6-6h188a6 6 0 0 1 6 6v128a6 6 0 0 1-6 6h-188a6 6 0 0 1-6-6z" stroke="#3a414a" fill="#cfe4ff"/><use xlink:href="#m" transform="matrix(1,0,0,1,-1140,-1160.2726861380295) translate(34.16666666666667 61.111111111111114)"/><use xlink:href="#C" transform="matrix(1,0,0,1,-1140,-1160.2726861380295) translate(81.51234567901236 61.111111111111114)"/><use xlink:href="#D" transform="matrix(1,0,0,1,-1140,-1160.2726861380295) translate(44.29012345679012 87.77777777777777)"/><path d="M-780-1218.92v22.76a6 6 0 0 0 6 6h229.66a6 6 0 0 1 6 6v6.9" stroke="#3a414a" fill="none"/><path d="M-779.5-1218.9h-1v-.52h1z" stroke="#3a414a" stroke-width=".05" fill="#3a414a"/><path d="M-538.34-1162.5l-4.63-14.27h9.27z" stroke="#3a414a" fill="#3a414a"/><path d="M-601-1130.27h-42.65" stroke="#3a414a" fill="none"/><path d="M-600.5-1129.77h-.5v-1h.5z" stroke="#3a414a" stroke-width=".05" fill="#3a414a"/><path d="M-658.42-1130.27l14.27-4.64v9.26z" stroke="#3a414a" fill="#3a414a"/><path d="M-600.94-1050.94h-42.7" stroke="#3a414a" fill="none"/><path d="M-600.44-1050.44h-.5v-1h.5z" stroke="#3a414a" stroke-width=".05" fill="#3a414a"/><path d="M-658.42-1050.94l14.27-4.64v9.27z" stroke="#3a414a" fill="#3a414a"/><path d="M-900.96-1130.27h-42.22" stroke="#3a414a" fill="none"/><path d="M-900.46-1129.77h-.52v-1h.52z" stroke="#3a414a" stroke-width=".05" fill="#3a414a"/><path d="M-957.94-1130.27l14.26-4.64v9.26z" stroke="#3a414a" fill="#3a414a"/><path d="M-900.96-1050.27h-42.17" stroke="#3a414a" fill="none"/><path d="M-900.46-1049.77h-.52v-1h.52z" stroke="#3a414a" stroke-width=".05" fill="#3a414a"/><path d="M-957.9-1050.27l14.27-4.64v9.26z" stroke="#3a414a" fill="#3a414a"/><path d="M-1060-1161.24v-61.81" stroke="#3a414a" fill="none"/><path d="M-1059.5-1160.74h-1v-.5h1z" stroke="#3a414a" stroke-width=".05" fill="#3a414a"/><path d="M-1060-1237.83l4.64 14.27h-9.27z" stroke="#3a414a" fill="#3a414a"/><path d="M-1002.36-1379.94c3.3 0 6 2.68 6 6v48c0 3.3-2.7 6-6 6H-1154c-3.3 0-6-2.7-6-6v-48c0-3.32 2.7-6 6-6z" stroke="#3a414a" fill="#ffd9d9"/><use xlink:href="#E" transform="matrix(1,0,0,1,-1139.9993904959954,-1379.944024513136) translate(34.56172839506173 34.44444444444444)"/><use xlink:href="#F" transform="matrix(1,0,0,1,-1139.9993904959954,-1379.944024513136) translate(78.32716049382717 34.44444444444444)"/><path d="M-984.18-1339.94c3.3 0 6 2.68 6 6v48c0 3.3-2.7 6-6 6h-151.64c-3.3 0-6-2.7-6-6v-48c0-3.32 2.7-6 6-6z" stroke="#3a414a" fill="#ffd9d9"/><use xlink:href="#E" transform="matrix(1,0,0,1,-1121.8175723141771,-1339.944024513136) translate(34.56172839506173 34.44444444444444)"/><use xlink:href="#G" transform="matrix(1,0,0,1,-1121.8175723141771,-1339.944024513136) translate(78.32716049382717 34.44444444444444)"/><path d="M-966-1299.94c3.3 0 6 2.68 6 6v48c0 3.3-2.7 6-6 6h-151.64c-3.3 0-6-2.7-6-6v-48c0-3.32 2.7-6 6-6z" stroke="#3a414a" fill="#ffd9d9"/><g><use xlink:href="#H" transform="matrix(1,0,0,1,-1103.6357541323591,-1299.944024513136) translate(45.33333333333333 34.44444444444444)"/></g><path d="M-1021-1380.94V-1404a6 6 0 0 1 6-6h98.16" stroke="#3a414a" fill="none"/><path d="M-1020.5-1380.44h-1v-.52h1z" stroke="#3a414a" stroke-width=".05" fill="#3a414a"/><path d="M-902.08-1410l-14.26 4.64v-9.28z" stroke="#3a414a" fill="#3a414a"/><path d="M-1098.34-1380.94V-1484a6 6 0 0 1 6-6h175.5" stroke="#3a414a" fill="none"/><path d="M-1097.84-1380.44h-1v-.52h1z" stroke="#3a414a" stroke-width=".05" fill="#3a414a"/><path d="M-902.08-1490l-14.27 4.64v-9.28z" stroke="#3a414a" fill="#3a414a"/><path d="M0-1694a6 6 0 0 1 6-6h168a6 6 0 0 1 6 6v48a6 6 0 0 1-6 6H6a6 6 0 0 1-6-6z" fill="#dfe3e8"/><path d="M3.08-1699.22l.2-.13.87-.36.9-.23h2.02m4.03 0h4.02m4.02 0h4.02m4.02 0h4.03m4.03 0h4.02m4.02 0h4.03m4.02-.02h4.02m4.02 0h4.03m4 0h4.03m4.02 0h4.03m4.02 0h4.02m4.02 0l4.02-.02m4.03 0h4m4.03 0h4.02m4.03 0h4.02m4.02 0h4.02m4.03 0h4.02m4-.02h4.03m4.03 0h4.02m4.02 0h4.02m4.02 0h4.03m4.02 0h2l.94.07.9.22.23.08m3.15 2.7l.13.2.36.87.23.9v2.05m0 4.08v4.08m.02 4.08v4.07m0 4.1l.02 4.07m0 4.08v4.08m.02 4.07v4.08m0 4.08v2.04l-.07.94-.22.9-.08.23m-2.7 3.15l-.2.13-.87.36-.9.23h-2.02m-4.02 0h-4.02m-4.02 0h-4.02m-4.02 0h-4.03m-4.03 0h-4.02m-4.02 0h-4.03m-4.02.02h-4.02m-4.02 0h-4.02m-4.03 0h-4.03m-4.02 0h-4.02m-4.03 0h-4.02m-4.02 0l-4.02.02m-4.03 0h-4m-4.03 0h-4.02m-4.03 0H60.3m-4.02 0h-4.02m-4.02 0H44.2m-4 .02h-4.03m-4.02 0h-4.03m-4.02 0h-4.02m-4.02 0h-4.03M8-1640H6l-.94-.07-.9-.22-.23-.08m-3.15-2.7l-.13-.2-.36-.87-.23-.9v-2.05m0-4.08v-4.08m-.02-4.08v-4.07m0-4.1l-.02-4.07m0-4.08v-4.08m0-4.07l-.02-4.08m0-4.08v-2.04l.07-.94.22-.9.08-.23" stroke="#3a414a" fill="none"/><g><use xlink:href="#m" transform="matrix(1,0,0,1,20.000609504004842,-1700.0000000000002) translate(16.790123456790127 34.44444444444444)"/><use xlink:href="#I" transform="matrix(1,0,0,1,20.000609504004842,-1700.0000000000002) translate(64.1358024691358 34.44444444444444)"/></g><path d="M90-1639.04v102.2" stroke="#3a414a" fill="none"/><path d="M90.5-1639.02h-1v-.52h1z" stroke="#3a414a" stroke-width=".05" fill="#3a414a"/><path d="M90-1522.08l-4.63-14.27h9.27z" stroke="#3a414a" fill="#3a414a"/><path d="M-240-1074.55a6 6 0 0 1 6-6H-6a6 6 0 0 1 6 6v48a6 6 0 0 1-6 6h-228a6 6 0 0 1-6-6z" stroke="#3a414a" fill="#f2f3f5"/><g><use xlink:href="#J" transform="matrix(1,0,0,1,-220,-1080.55256357235) translate(37.839506172839506 34.44444444444444)"/><use xlink:href="#K" transform="matrix(1,0,0,1,-220,-1080.55256357235) translate(84.01234567901236 34.44444444444444)"/><use xlink:href="#L" transform="matrix(1,0,0,1,-220,-1080.55256357235) translate(120.37037037037037 34.44444444444444)"/></g><path d="M-458.33-1238.97v61.67" stroke="#3a414a" fill="none"/><path d="M-457.83-1239.47v.52h-1v-.52z" stroke="#3a414a" stroke-width=".05" fill="#3a414a"/><path d="M-458.33-1162.54l-4.64-14.26h9.27z" stroke="#3a414a" fill="#3a414a"/><defs><path fill="#3a414a" d="M134-16c44-1 70-21 70-64v-142l-32-4v-10h80v10l-30 4v141c0 57-33 84-91 85-58 0-93-26-93-82v-144l-30-4v-10h94v10l-30 4c7 82-31 209 62 206" id="M"/><path fill="#3a414a" d="M41-130c7 48 86 23 86 84 0 56-69 57-112 41v-40c20 0 9 29 31 31 35 19 77-26 41-50-27-18-72-13-72-59 0-50 58-52 100-41v36c-19 1-8-25-28-25-21-7-50-1-46 23" id="N"/><path fill="#3a414a" d="M84-170c49 0 66 33 63 87H46c-8 60 38 80 95 63v10C128-2 108 4 88 4 34 4 14-29 14-84c-1-54 22-86 70-86zm33 73c12-57-57-82-69-24-1 7-2 15-2 24h71" id="O"/><g id="a"><use transform="matrix(0.06172839506172839,0,0,0.06172839506172839,0,0)" xlink:href="#M"/><use transform="matrix(0.06172839506172839,0,0,0.06172839506172839,15.987654320987653,0)" xlink:href="#N"/><use transform="matrix(0.06172839506172839,0,0,0.06172839506172839,24.629629629629626,0)" xlink:href="#O"/></g><path fill="#3a414a" d="M75-106v92l39 5v9H13v-9l28-5v-208l-31-4v-10h177v57h-11l-6-38c-28-4-63-3-95-3v98h69l5-28h11v73h-11l-5-29H75" id="P"/><path fill="#3a414a" d="M47-200c-23 0-25-39 0-38 13 0 18 7 20 19-1 11-8 19-20 19zM65-12l28 4v8H8v-8l28-4v-141l-24-4v-8h53v153" id="Q"/><path fill="#3a414a" d="M65-12l28 4v8H7v-8l28-4v-226l-28-4v-8h58v238" id="R"/><g id="b"><use transform="matrix(0.06172839506172839,0,0,0.06172839506172839,0,0)" xlink:href="#P"/><use transform="matrix(0.06172839506172839,0,0,0.06172839506172839,12.345679012345679,0)" xlink:href="#Q"/><use transform="matrix(0.06172839506172839,0,0,0.06172839506172839,18.51851851851852,0)" xlink:href="#R"/><use transform="matrix(0.06172839506172839,0,0,0.06172839506172839,24.691358024691358,0)" xlink:href="#O"/><use transform="matrix(0.06172839506172839,0,0,0.06172839506172839,34.50617283950617,0)" xlink:href="#N"/></g><path fill="#3a414a" d="M178-68c0 79-95 82-154 59v-54h12c1 35 22 52 60 52 50 0 69-58 33-82-39-24-105-21-105-85 0-67 86-66 142-53v49h-12l-6-29c-31-27-121-7-89 42 28 43 119 24 119 101" id="S"/><path fill="#3a414a" d="M45-84c0 64 52 80 104 63 1 25-30 25-55 25-56 0-80-32-80-88 0-76 62-98 131-80v46h-10c-5-15-4-31-23-35-47-10-67 21-67 69" id="T"/><path fill="#3a414a" d="M125-118c4-37-41-34-68-26v132l23 4v8H8C5-13 21-9 28-12v-141c-7-3-23 1-20-12h47l2 13c31-23 98-29 98 31v109c7 3 23-1 20 12h-72v-8l22-4v-106" id="U"/><path fill="#3a414a" d="M32-163c41-10 102-14 102 39v112c8 3 24-2 21 12h-45l-4-17C83 13 3 13 13-46c-2-50 45-50 92-51 4-36-5-70-42-56-6 2-12 4-16 6-4 7 0 23-15 20v-36zM42-47c0 41 41 33 63 22v-59c-34 1-63-1-63 37" id="V"/><path fill="#3a414a" d="M57-145c16-10 35-24 60-25v45c-19 1-8-30-40-17l-20 6v124l29 4v8H7v-8l21-4v-141c-8-3-24 2-21-12h48" id="W"/><path fill="#3a414a" d="M90-170c52 0 76 32 76 87 0 54-24 87-77 87-51 0-75-34-75-87 0-54 24-87 76-87zM89-10c39 0 46-35 46-73 0-39-7-73-46-73-39 1-44 34-44 73s6 72 44 73" id="X"/><g id="c"><use transform="matrix(0.06172839506172839,0,0,0.06172839506172839,0,0)" xlink:href="#S"/><use transform="matrix(0.06172839506172839,0,0,0.06172839506172839,12.345679012345679,0)" xlink:href="#T"/><use transform="matrix(0.06172839506172839,0,0,0.06172839506172839,22.160493827160494,0)" xlink:href="#O"/><use transform="matrix(0.06172839506172839,0,0,0.06172839506172839,31.975308641975307,0)" xlink:href="#U"/><use transform="matrix(0.06172839506172839,0,0,0.06172839506172839,43.08641975308642,0)" xlink:href="#V"/><use transform="matrix(0.06172839506172839,0,0,0.06172839506172839,52.901234567901234,0)" xlink:href="#W"/><use transform="matrix(0.06172839506172839,0,0,0.06172839506172839,60.24691358024691,0)" xlink:href="#Q"/><use transform="matrix(0.06172839506172839,0,0,0.06172839506172839,66.41975308641975,0)" xlink:href="#X"/></g><path fill="#3a414a" d="M75-17c87 13 134-18 134-103 0-78-51-106-134-100v203zm171-102C246 5 139 7 10 0v-9l31-5v-208l-31-4v-10h107c82 0 129 35 129 117" id="Y"/><path fill="#3a414a" d="M103-236c-39-15-35 32-34 71h44v15H69v136l35 6v8H15v-8l25-6v-136H11v-9l29-7c-6-59 23-100 80-84v36c-15 2-12-14-17-22" id="Z"/><path fill="#3a414a" d="M54-38c-1 25 24 26 44 20v12C71 10 25 9 25-35v-115H4c-2-14 14-10 21-15l18-38h11v38h38v15H54v112" id="aa"/><g id="d"><use transform="matrix(0.06172839506172839,0,0,0.06172839506172839,0,0)" xlink:href="#Y"/><use transform="matrix(0.06172839506172839,0,0,0.06172839506172839,15.987654320987653,0)" xlink:href="#O"/><use transform="matrix(0.06172839506172839,0,0,0.06172839506172839,25.80246913580247,0)" xlink:href="#Z"/><use transform="matrix(0.06172839506172839,0,0,0.06172839506172839,33.148148148148145,0)" xlink:href="#Q"/><use transform="matrix(0.06172839506172839,0,0,0.06172839506172839,39.32098765432099,0)" xlink:href="#U"/><use transform="matrix(0.06172839506172839,0,0,0.06172839506172839,50.4320987654321,0)" xlink:href="#Q"/><use transform="matrix(0.06172839506172839,0,0,0.06172839506172839,56.604938271604944,0)" xlink:href="#aa"/><use transform="matrix(0.06172839506172839,0,0,0.06172839506172839,62.777777777777786,0)" xlink:href="#Q"/><use transform="matrix(0.06172839506172839,0,0,0.06172839506172839,68.95061728395062,0)" xlink:href="#X"/><use transform="matrix(0.06172839506172839,0,0,0.06172839506172839,80.06172839506173,0)" xlink:href="#U"/></g><path fill="#3a414a" d="M161-154L85 37C75 66 49 86 8 75V39c18-2 6 24 29 21 30-4 38-32 47-58L21-153c-7-3-20 0-17-12h77v8l-26 4 45 116 43-116-26-4v-8h62v8" id="ab"/><path fill="#3a414a" d="M126-118c4-37-42-32-68-25v131l24 4v8H8C5-13 21-9 28-12v-141c-7-3-23 1-20-12h48l1 13c22-15 77-30 92 2 32-22 104-36 104 29v109c8 3 24-2 21 12h-75v-8l25-4v-106c3-39-45-31-72-24 7 37 1 88 3 130l25 4v8h-78v-8l24-4v-106" id="ac"/><g id="e"><use transform="matrix(0.06172839506172839,0,0,0.06172839506172839,0,0)" xlink:href="#S"/><use transform="matrix(0.06172839506172839,0,0,0.06172839506172839,12.345679012345679,0)" xlink:href="#ab"/><use transform="matrix(0.06172839506172839,0,0,0.06172839506172839,23.45679012345679,0)" xlink:href="#N"/><use transform="matrix(0.06172839506172839,0,0,0.06172839506172839,32.098765432098766,0)" xlink:href="#aa"/><use transform="matrix(0.06172839506172839,0,0,0.06172839506172839,38.27160493827161,0)" xlink:href="#O"/><use transform="matrix(0.06172839506172839,0,0,0.06172839506172839,48.086419753086425,0)" xlink:href="#ac"/></g><path fill="#3a414a" d="M77-14l30 5v9H13v-9l30-5v-208l-30-4v-10h94v10l-30 4v208" id="ad"/><path fill="#3a414a" d="M141-152c28 39 5 97-54 97-9 0-20-2-27-3L49-35c29 22 130-14 124 52-4 45-38 57-88 61C21 83-8 26 45-2 33-6 22-15 21-31l28-31c-19-9-28-26-28-51-2-51 53-65 100-52l38-20 7 8zM85 64c35 0 61-11 61-42 0-35-57-17-89-21-9 8-16 19-17 34 0 25 19 29 45 29zM52-113c1 26 7 46 35 44 28-1 34-16 35-44 0-26-6-43-34-43s-36 17-36 43" id="ae"/><g id="f"><use transform="matrix(0.06172839506172839,0,0,0.06172839506172839,0,0)" xlink:href="#ad"/><use transform="matrix(0.06172839506172839,0,0,0.06172839506172839,7.345679012345679,0)" xlink:href="#U"/><use transform="matrix(0.06172839506172839,0,0,0.06172839506172839,18.45679012345679,0)" xlink:href="#aa"/><use transform="matrix(0.06172839506172839,0,0,0.06172839506172839,24.62962962962963,0)" xlink:href="#O"/><use transform="matrix(0.06172839506172839,0,0,0.06172839506172839,34.44444444444444,0)" xlink:href="#ae"/><use transform="matrix(0.06172839506172839,0,0,0.06172839506172839,45.55555555555556,0)" xlink:href="#W"/><use transform="matrix(0.06172839506172839,0,0,0.06172839506172839,52.901234567901234,0)" xlink:href="#V"/><use transform="matrix(0.06172839506172839,0,0,0.06172839506172839,62.71604938271605,0)" xlink:href="#aa"/><use transform="matrix(0.06172839506172839,0,0,0.06172839506172839,68.88888888888889,0)" xlink:href="#X"/><use transform="matrix(0.06172839506172839,0,0,0.06172839506172839,80,0)" xlink:href="#W"/></g><path fill="#3a414a" d="M55 0v-9l38-5v-207c-22 1-53 0-70 4l-5 37H7v-56h207v56h-12l-5-37-70-3v206l37 5v9H55" id="af"/><g id="g"><use transform="matrix(0.06172839506172839,0,0,0.06172839506172839,0,0)" xlink:href="#af"/><use transform="matrix(0.06172839506172839,0,0,0.06172839506172839,12.716049382716047,0)" xlink:href="#Q"/><use transform="matrix(0.06172839506172839,0,0,0.06172839506172839,18.888888888888886,0)" xlink:href="#W"/><use transform="matrix(0.06172839506172839,0,0,0.06172839506172839,26.234567901234563,0)" xlink:href="#X"/></g><path fill="#3a414a" d="M75-108c48 3 76-12 76-58s-28-57-76-54v112zm111-58c-1 60-46 78-111 74v78l37 5v9H13v-9l28-5v-208l-31-4v-10c81 1 178-14 176 70" id="ag"/><g id="h"><use transform="matrix(0.06172839506172839,0,0,0.06172839506172839,0,0)" xlink:href="#ag"/><use transform="matrix(0.06172839506172839,0,0,0.06172839506172839,12.345679012345679,0)" xlink:href="#W"/><use transform="matrix(0.06172839506172839,0,0,0.06172839506172839,19.691358024691358,0)" xlink:href="#X"/><use transform="matrix(0.06172839506172839,0,0,0.06172839506172839,30.80246913580247,0)" xlink:href="#T"/><use transform="matrix(0.06172839506172839,0,0,0.06172839506172839,40.617283950617285,0)" xlink:href="#O"/><use transform="matrix(0.06172839506172839,0,0,0.06172839506172839,50.4320987654321,0)" xlink:href="#N"/><use transform="matrix(0.06172839506172839,0,0,0.06172839506172839,59.074074074074076,0)" xlink:href="#N"/><use transform="matrix(0.06172839506172839,0,0,0.06172839506172839,67.71604938271605,0)" xlink:href="#X"/><use transform="matrix(0.06172839506172839,0,0,0.06172839506172839,78.82716049382717,0)" xlink:href="#W"/></g><path fill="#3a414a" d="M106-76c4 61-43 93-98 74v-43h11c2 18 5 33 28 33 16 0 25-11 25-33v-177l-30-4v-10h91v10l-27 4v146" id="ah"/><path fill="#3a414a" d="M130-224c-62 0-78 43-78 106 0 64 16 108 78 108s78-45 78-108-16-106-78-106zm0 228C53 4 15-39 15-118c-1-80 37-120 115-120s115 42 115 120C245-39 207 4 130 4" id="ai"/><path fill="#3a414a" d="M203-222l-32-4v-10h81v10l-31 4V0h-17L59-212v198l32 5v9H10v-9l31-5v-208l-31-4v-10h72L203-61v-161" id="aj"/><g id="i"><use transform="matrix(0.06172839506172839,0,0,0.06172839506172839,0,0)" xlink:href="#ah"/><use transform="matrix(0.06172839506172839,0,0,0.06172839506172839,8.641975308641975,0)" xlink:href="#S"/><use transform="matrix(0.06172839506172839,0,0,0.06172839506172839,20.98765432098765,0)" xlink:href="#ai"/><use transform="matrix(0.06172839506172839,0,0,0.06172839506172839,36.9753086419753,0)" xlink:href="#aj"/></g><path fill="#3a414a" d="M10-9l31-5v-208l-31-4v-10h177v57h-11l-6-38c-28-4-63-3-95-3v92h63l6-28h11v73h-11l-6-29H75v96l105-3 10-43h12l-3 62H10v-9" id="ak"/><path fill="#3a414a" d="M156-12c7 3 23-1 20 12h-75v-8l22-4-38-58-45 58 23 4v8H3v-8l19-3 55-71-48-71c-7-3-23 1-20-12h75v8l-22 4 32 48 37-48-23-4v-8h59v8l-19 3-46 60" id="al"/><path fill="#3a414a" d="M166-85c3 67-44 102-111 85l1 64 29 4v9H6v-9l21-4v-217c-7-3-22 1-19-12h46l1 9c11-8 26-14 45-14 47 2 64 36 66 85zM56-13c53 14 83-14 78-72 7-53-33-79-78-60v132" id="am"/><g id="j"><use transform="matrix(0.06172839506172839,0,0,0.06172839506172839,0,0)" xlink:href="#ak"/><use transform="matrix(0.06172839506172839,0,0,0.06172839506172839,13.518518518518517,0)" xlink:href="#al"/><use transform="matrix(0.06172839506172839,0,0,0.06172839506172839,24.629629629629626,0)" xlink:href="#V"/><use transform="matrix(0.06172839506172839,0,0,0.06172839506172839,34.44444444444444,0)" xlink:href="#ac"/><use transform="matrix(0.06172839506172839,0,0,0.06172839506172839,51.72839506172839,0)" xlink:href="#am"/><use transform="matrix(0.06172839506172839,0,0,0.06172839506172839,62.839506172839506,0)" xlink:href="#R"/><use transform="matrix(0.06172839506172839,0,0,0.06172839506172839,69.01234567901234,0)" xlink:href="#O"/></g><path fill="#3a414a" d="M126-119c3-38-42-31-69-25v132l23 4v8H7v-8l21-4v-226l-24-4v-8h53l-1 98c31-22 99-31 99 31v109c7 3 23-1 20 12h-71v-8l22-4v-107" id="an"/><g id="k"><use transform="matrix(0.06172839506172839,0,0,0.06172839506172839,0,0)" xlink:href="#S"/><use transform="matrix(0.06172839506172839,0,0,0.06172839506172839,12.345679012345679,0)" xlink:href="#T"/><use transform="matrix(0.06172839506172839,0,0,0.06172839506172839,22.160493827160494,0)" xlink:href="#an"/><use transform="matrix(0.06172839506172839,0,0,0.06172839506172839,33.27160493827161,0)" xlink:href="#O"/><use transform="matrix(0.06172839506172839,0,0,0.06172839506172839,43.086419753086425,0)" xlink:href="#ac"/><use transform="matrix(0.06172839506172839,0,0,0.06172839506172839,60.370370370370374,0)" xlink:href="#V"/></g><path fill="#3a414a" d="M256-236v10l-26 4L135 5h-9L31-222l-27-4v-10h95v10l-31 4 71 174 71-174-31-4v-10h77" id="ao"/><path fill="#3a414a" d="M13-81c0-71 46-101 114-85l-1-72-28-4v-8h57v238c8 3 24-2 21 12h-47l-2-12C80 23 13-1 13-81zm77-74c-37 1-44 33-45 74 0 38 9 66 45 66 14 0 27-3 36-7v-130c-10-1-24-3-36-3" id="ap"/><g id="l"><use transform="matrix(0.06172839506172839,0,0,0.06172839506172839,0,0)" xlink:href="#ao"/><use transform="matrix(0.06172839506172839,0,0,0.06172839506172839,13.518518518518517,0)" xlink:href="#V"/><use transform="matrix(0.06172839506172839,0,0,0.06172839506172839,23.333333333333332,0)" xlink:href="#R"/><use transform="matrix(0.06172839506172839,0,0,0.06172839506172839,29.50617283950617,0)" xlink:href="#Q"/><use transform="matrix(0.06172839506172839,0,0,0.06172839506172839,35.67901234567901,0)" xlink:href="#ap"/><use transform="matrix(0.06172839506172839,0,0,0.06172839506172839,46.79012345679013,0)" xlink:href="#V"/><use transform="matrix(0.06172839506172839,0,0,0.06172839506172839,56.604938271604944,0)" xlink:href="#aa"/><use transform="matrix(0.06172839506172839,0,0,0.06172839506172839,62.777777777777786,0)" xlink:href="#X"/><use transform="matrix(0.06172839506172839,0,0,0.06172839506172839,73.8888888888889,0)" xlink:href="#W"/></g><g id="m"><use transform="matrix(0.06172839506172839,0,0,0.06172839506172839,0,0)" xlink:href="#Y"/><use transform="matrix(0.06172839506172839,0,0,0.06172839506172839,15.987654320987653,0)" xlink:href="#V"/><use transform="matrix(0.06172839506172839,0,0,0.06172839506172839,25.80246913580247,0)" xlink:href="#aa"/><use transform="matrix(0.06172839506172839,0,0,0.06172839506172839,31.975308641975307,0)" xlink:href="#V"/></g><path fill="#3a414a" d="M52-115c0 93 80 130 150 87l7-35h11l-1 55c-23 7-52 12-83 12C60 4 19-37 15-115c-5-113 97-141 201-114l1 51h-12l-5-30c-15-9-39-16-62-16-66 0-86 41-86 109" id="aq"/><g id="n"><use transform="matrix(0.06172839506172839,0,0,0.06172839506172839,0,0)" xlink:href="#aq"/><use transform="matrix(0.06172839506172839,0,0,0.06172839506172839,14.814814814814813,0)" xlink:href="#X"/><use transform="matrix(0.06172839506172839,0,0,0.06172839506172839,25.925925925925924,0)" xlink:href="#R"/><use transform="matrix(0.06172839506172839,0,0,0.06172839506172839,32.098765432098766,0)" xlink:href="#R"/><use transform="matrix(0.06172839506172839,0,0,0.06172839506172839,38.27160493827161,0)" xlink:href="#O"/><use transform="matrix(0.06172839506172839,0,0,0.06172839506172839,48.086419753086425,0)" xlink:href="#T"/><use transform="matrix(0.06172839506172839,0,0,0.06172839506172839,57.90123456790124,0)" xlink:href="#aa"/><use transform="matrix(0.06172839506172839,0,0,0.06172839506172839,64.07407407407408,0)" xlink:href="#X"/><use transform="matrix(0.06172839506172839,0,0,0.06172839506172839,75.18518518518519,0)" xlink:href="#W"/></g><path fill="#3a414a" d="M108-235c-52 28-62 95-58 178 3 56 21 97 58 119v15C7 49-17-153 67-223c12-10 25-19 41-27v15" id="ar"/><path fill="#3a414a" d="M238-236v10l-27 4-81 79L231-14l25 5v9h-57l-93-119-31 25v80l33 5v9H10v-9l31-5v-208l-31-4v-10h95v10l-30 4v111l112-111-23-4v-10h74" id="as"/><path fill="#3a414a" d="M10 0v-8l90-143c-23 2-54-4-70 6-5 8 1 26-14 24v-44h122v8L47-14c29-2 65 3 86-8l9-35h8l-5 57H10" id="at"/><path fill="#3a414a" d="M12-250C113-222 137-19 52 49 40 59 28 69 12 77V62C56 37 70-16 70-87c0-70-13-123-58-148v-15" id="au"/><g id="o"><use transform="matrix(0.06172839506172839,0,0,0.06172839506172839,0,0)" xlink:href="#ar"/><use transform="matrix(0.06172839506172839,0,0,0.06172839506172839,7.345679012345679,0)" xlink:href="#as"/><use transform="matrix(0.06172839506172839,0,0,0.06172839506172839,23.333333333333332,0)" xlink:href="#V"/><use transform="matrix(0.06172839506172839,0,0,0.06172839506172839,33.148148148148145,0)" xlink:href="#W"/><use transform="matrix(0.06172839506172839,0,0,0.06172839506172839,40.49382716049382,0)" xlink:href="#O"/><use transform="matrix(0.06172839506172839,0,0,0.06172839506172839,50.30864197530864,0)" xlink:href="#at"/><use transform="matrix(0.06172839506172839,0,0,0.06172839506172839,60.123456790123456,0)" xlink:href="#au"/></g><path fill="#3a414a" d="M152 0h-7L59-203v189l32 5v9H10v-9l31-5v-208l-31-4v-10h72l76 180 84-180h68v10l-31 4v208l31 5v9h-96v-9l32-5v-189" id="av"/><path fill="#3a414a" d="M60-80l68-73c-7-3-20 0-17-12h58c3 13-13 9-20 12l-47 48 60 93c7 3 21-1 18 12h-68c-3-12 9-9 15-12L82-83 60-60v48c7 3 21-1 18 12H10v-8l21-4v-226l-24-4v-8h53v170" id="aw"/><g id="p"><use transform="matrix(0.06172839506172839,0,0,0.06172839506172839,0,0)" xlink:href="#av"/><use transform="matrix(0.06172839506172839,0,0,0.06172839506172839,19.753086419753085,0)" xlink:href="#X"/><use transform="matrix(0.06172839506172839,0,0,0.06172839506172839,30.864197530864196,0)" xlink:href="#T"/><use transform="matrix(0.06172839506172839,0,0,0.06172839506172839,40.67901234567901,0)" xlink:href="#aw"/></g><g id="q"><use transform="matrix(0.06172839506172839,0,0,0.06172839506172839,0,0)" xlink:href="#Y"/><use transform="matrix(0.06172839506172839,0,0,0.06172839506172839,15.987654320987653,0)" xlink:href="#V"/><use transform="matrix(0.06172839506172839,0,0,0.06172839506172839,25.80246913580247,0)" xlink:href="#aa"/><use transform="matrix(0.06172839506172839,0,0,0.06172839506172839,31.975308641975307,0)" xlink:href="#V"/></g><path fill="#3a414a" d="M52-115c0 90 69 126 140 93v-67l-30-5v-9h87v9l-23 5v77c-27 8-56 16-90 16C59 2 15-37 15-115c-1-82 41-123 122-123 31 0 59 4 83 10v51h-12l-5-29c-15-12-38-18-65-18-66-1-86 42-86 109" id="ax"/><g id="r"><use transform="matrix(0.06172839506172839,0,0,0.06172839506172839,0,0)" xlink:href="#ax"/><use transform="matrix(0.06172839506172839,0,0,0.06172839506172839,15.987654320987653,0)" xlink:href="#O"/><use transform="matrix(0.06172839506172839,0,0,0.06172839506172839,25.80246913580247,0)" xlink:href="#U"/><use transform="matrix(0.06172839506172839,0,0,0.06172839506172839,36.91358024691358,0)" xlink:href="#O"/><use transform="matrix(0.06172839506172839,0,0,0.06172839506172839,46.7283950617284,0)" xlink:href="#W"/><use transform="matrix(0.06172839506172839,0,0,0.06172839506172839,54.074074074074076,0)" xlink:href="#V"/><use transform="matrix(0.06172839506172839,0,0,0.06172839506172839,63.8888888888889,0)" xlink:href="#aa"/><use transform="matrix(0.06172839506172839,0,0,0.06172839506172839,70.06172839506173,0)" xlink:href="#X"/><use transform="matrix(0.06172839506172839,0,0,0.06172839506172839,81.17283950617285,0)" xlink:href="#W"/></g><g id="s"><use transform="matrix(0.06172839506172839,0,0,0.06172839506172839,0,0)" xlink:href="#ao"/><use transform="matrix(0.06172839506172839,0,0,0.06172839506172839,13.518518518518517,0)" xlink:href="#V"/><use transform="matrix(0.06172839506172839,0,0,0.06172839506172839,23.333333333333332,0)" xlink:href="#R"/><use transform="matrix(0.06172839506172839,0,0,0.06172839506172839,29.50617283950617,0)" xlink:href="#Q"/><use transform="matrix(0.06172839506172839,0,0,0.06172839506172839,35.67901234567901,0)" xlink:href="#ap"/><use transform="matrix(0.06172839506172839,0,0,0.06172839506172839,46.79012345679013,0)" xlink:href="#V"/><use transform="matrix(0.06172839506172839,0,0,0.06172839506172839,56.604938271604944,0)" xlink:href="#aa"/><use transform="matrix(0.06172839506172839,0,0,0.06172839506172839,62.777777777777786,0)" xlink:href="#Q"/><use transform="matrix(0.06172839506172839,0,0,0.06172839506172839,68.95061728395062,0)" xlink:href="#X"/><use transform="matrix(0.06172839506172839,0,0,0.06172839506172839,80.06172839506173,0)" xlink:href="#U"/></g><path fill="#3a414a" d="M199-173c-1 36-21 56-49 65l64 94 26 5v9h-57l-66-103H75v89l35 5v9H13v-9l28-5v-208l-31-4v-10c80 4 190-20 189 63zM75-119c50 2 89-1 89-51 0-49-39-52-89-50v101" id="ay"/><g id="t"><use transform="matrix(0.06172839506172839,0,0,0.06172839506172839,0,0)" xlink:href="#ay"/><use transform="matrix(0.06172839506172839,0,0,0.06172839506172839,14.814814814814813,0)" xlink:href="#O"/><use transform="matrix(0.06172839506172839,0,0,0.06172839506172839,24.629629629629626,0)" xlink:href="#am"/><use transform="matrix(0.06172839506172839,0,0,0.06172839506172839,35.74074074074073,0)" xlink:href="#X"/><use transform="matrix(0.06172839506172839,0,0,0.06172839506172839,46.85185185185185,0)" xlink:href="#W"/><use transform="matrix(0.06172839506172839,0,0,0.06172839506172839,54.197530864197525,0)" xlink:href="#aa"/></g><path fill="#3a414a" d="M13-71v-27h94v27H13" id="az"/><g id="u"><use transform="matrix(0.06172839506172839,0,0,0.06172839506172839,0,0)" xlink:href="#af"/><use transform="matrix(0.06172839506172839,0,0,0.06172839506172839,12.716049382716047,0)" xlink:href="#Q"/><use transform="matrix(0.06172839506172839,0,0,0.06172839506172839,18.888888888888886,0)" xlink:href="#ac"/><use transform="matrix(0.06172839506172839,0,0,0.06172839506172839,36.172839506172835,0)" xlink:href="#O"/><use transform="matrix(0.06172839506172839,0,0,0.06172839506172839,45.98765432098765,0)" xlink:href="#az"/><use transform="matrix(0.06172839506172839,0,0,0.06172839506172839,53.33333333333333,0)" xlink:href="#S"/><use transform="matrix(0.06172839506172839,0,0,0.06172839506172839,65.67901234567901,0)" xlink:href="#O"/><use transform="matrix(0.06172839506172839,0,0,0.06172839506172839,75.49382716049382,0)" xlink:href="#W"/><use transform="matrix(0.06172839506172839,0,0,0.06172839506172839,82.8395061728395,0)" xlink:href="#Q"/><use transform="matrix(0.06172839506172839,0,0,0.06172839506172839,89.01234567901234,0)" xlink:href="#O"/><use transform="matrix(0.06172839506172839,0,0,0.06172839506172839,98.82716049382715,0)" xlink:href="#N"/></g><path fill="#3a414a" d="M53-14c58 12 82-15 82-73 0-52-35-77-82-58v131zM89 4C64 4 42-2 24-9v-229l-24-4v-8h53l-1 94c48-33 114-4 114 69 0 57-23 91-77 91" id="aA"/><g id="v"><use transform="matrix(0.06172839506172839,0,0,0.06172839506172839,0,0)" xlink:href="#Y"/><use transform="matrix(0.06172839506172839,0,0,0.06172839506172839,15.987654320987653,0)" xlink:href="#V"/><use transform="matrix(0.06172839506172839,0,0,0.06172839506172839,25.80246913580247,0)" xlink:href="#aa"/><use transform="matrix(0.06172839506172839,0,0,0.06172839506172839,31.975308641975307,0)" xlink:href="#V"/><use transform="matrix(0.06172839506172839,0,0,0.06172839506172839,41.79012345679012,0)" xlink:href="#aA"/><use transform="matrix(0.06172839506172839,0,0,0.06172839506172839,52.90123456790123,0)" xlink:href="#V"/><use transform="matrix(0.06172839506172839,0,0,0.06172839506172839,62.716049382716044,0)" xlink:href="#N"/><use transform="matrix(0.06172839506172839,0,0,0.06172839506172839,71.35802469135803,0)" xlink:href="#O"/></g><g id="w"><use transform="matrix(0.06172839506172839,0,0,0.06172839506172839,0,0)" xlink:href="#ax"/><use transform="matrix(0.06172839506172839,0,0,0.06172839506172839,15.987654320987653,0)" xlink:href="#W"/><use transform="matrix(0.06172839506172839,0,0,0.06172839506172839,23.333333333333332,0)" xlink:href="#V"/><use transform="matrix(0.06172839506172839,0,0,0.06172839506172839,33.148148148148145,0)" xlink:href="#am"/><use transform="matrix(0.06172839506172839,0,0,0.06172839506172839,44.25925925925925,0)" xlink:href="#an"/></g><g id="x"><use transform="matrix(0.06172839506172839,0,0,0.06172839506172839,0,0)" xlink:href="#ay"/><use transform="matrix(0.06172839506172839,0,0,0.06172839506172839,14.814814814814813,0)" xlink:href="#O"/><use transform="matrix(0.06172839506172839,0,0,0.06172839506172839,24.629629629629626,0)" xlink:href="#Z"/><use transform="matrix(0.06172839506172839,0,0,0.06172839506172839,31.9753086419753,0)" xlink:href="#O"/><use transform="matrix(0.06172839506172839,0,0,0.06172839506172839,41.79012345679012,0)" xlink:href="#W"/><use transform="matrix(0.06172839506172839,0,0,0.06172839506172839,49.1358024691358,0)" xlink:href="#O"/><use transform="matrix(0.06172839506172839,0,0,0.06172839506172839,58.95061728395061,0)" xlink:href="#U"/><use transform="matrix(0.06172839506172839,0,0,0.06172839506172839,70.06172839506172,0)" xlink:href="#T"/><use transform="matrix(0.06172839506172839,0,0,0.06172839506172839,79.87654320987653,0)" xlink:href="#O"/></g><g id="y"><use transform="matrix(0.06172839506172839,0,0,0.06172839506172839,0,0)" xlink:href="#av"/><use transform="matrix(0.06172839506172839,0,0,0.06172839506172839,19.753086419753085,0)" xlink:href="#X"/><use transform="matrix(0.06172839506172839,0,0,0.06172839506172839,30.864197530864196,0)" xlink:href="#ap"/><use transform="matrix(0.06172839506172839,0,0,0.06172839506172839,41.9753086419753,0)" xlink:href="#O"/><use transform="matrix(0.06172839506172839,0,0,0.06172839506172839,51.79012345679012,0)" xlink:href="#R"/></g><g id="z"><use transform="matrix(0.06172839506172839,0,0,0.06172839506172839,0,0)" xlink:href="#ag"/><use transform="matrix(0.06172839506172839,0,0,0.06172839506172839,12.345679012345679,0)" xlink:href="#W"/><use transform="matrix(0.06172839506172839,0,0,0.06172839506172839,19.691358024691358,0)" xlink:href="#O"/><use transform="matrix(0.06172839506172839,0,0,0.06172839506172839,29.50617283950617,0)" xlink:href="#ap"/><use transform="matrix(0.06172839506172839,0,0,0.06172839506172839,40.61728395061728,0)" xlink:href="#O"/><use transform="matrix(0.06172839506172839,0,0,0.06172839506172839,50.432098765432094,0)" xlink:href="#Z"/><use transform="matrix(0.06172839506172839,0,0,0.06172839506172839,57.77777777777777,0)" xlink:href="#Q"/><use transform="matrix(0.06172839506172839,0,0,0.06172839506172839,63.95061728395061,0)" xlink:href="#U"/><use transform="matrix(0.06172839506172839,0,0,0.06172839506172839,75.06172839506172,0)" xlink:href="#O"/><use transform="matrix(0.06172839506172839,0,0,0.06172839506172839,84.87654320987653,0)" xlink:href="#ap"/></g><path fill="#3a414a" d="M81-9v9H4v-9l26-5 81-224h33l83 224 30 5v9h-99v-9l31-5-23-68H73L49-14zm38-203L78-98h82" id="aB"/><g id="A"><use transform="matrix(0.06172839506172839,0,0,0.06172839506172839,0,0)" xlink:href="#aB"/><use transform="matrix(0.06172839506172839,0,0,0.06172839506172839,15.987654320987653,0)" xlink:href="#N"/><use transform="matrix(0.06172839506172839,0,0,0.06172839506172839,24.629629629629626,0)" xlink:href="#N"/><use transform="matrix(0.06172839506172839,0,0,0.06172839506172839,33.2716049382716,0)" xlink:href="#O"/><use transform="matrix(0.06172839506172839,0,0,0.06172839506172839,43.08641975308642,0)" xlink:href="#aa"/></g><path fill="#3a414a" d="M111-226l-36 4v207c33-1 73 2 101-4l11-49h11l-3 68H10v-9l31-5v-208l-31-4v-10h101v10" id="aC"/><g id="B"><use transform="matrix(0.06172839506172839,0,0,0.06172839506172839,0,0)" xlink:href="#aC"/><use transform="matrix(0.06172839506172839,0,0,0.06172839506172839,13.518518518518517,0)" xlink:href="#Q"/><use transform="matrix(0.06172839506172839,0,0,0.06172839506172839,19.691358024691358,0)" xlink:href="#aA"/><use transform="matrix(0.06172839506172839,0,0,0.06172839506172839,30.80246913580247,0)" xlink:href="#W"/><use transform="matrix(0.06172839506172839,0,0,0.06172839506172839,38.148148148148145,0)" xlink:href="#V"/><use transform="matrix(0.06172839506172839,0,0,0.06172839506172839,47.96296296296296,0)" xlink:href="#W"/><use transform="matrix(0.06172839506172839,0,0,0.06172839506172839,55.30864197530864,0)" xlink:href="#Q"/><use transform="matrix(0.06172839506172839,0,0,0.06172839506172839,61.48148148148148,0)" xlink:href="#O"/><use transform="matrix(0.06172839506172839,0,0,0.06172839506172839,71.29629629629629,0)" xlink:href="#N"/></g><g id="C"><use transform="matrix(0.06172839506172839,0,0,0.06172839506172839,0,0)" xlink:href="#S"/><use transform="matrix(0.06172839506172839,0,0,0.06172839506172839,12.345679012345679,0)" xlink:href="#Y"/><use transform="matrix(0.06172839506172839,0,0,0.06172839506172839,28.333333333333332,0)" xlink:href="#as"/></g><g id="D"><use transform="matrix(0.06172839506172839,0,0,0.06172839506172839,0,0)" xlink:href="#ar"/><use transform="matrix(0.06172839506172839,0,0,0.06172839506172839,7.345679012345679,0)" xlink:href="#M"/><use transform="matrix(0.06172839506172839,0,0,0.06172839506172839,23.333333333333332,0)" xlink:href="#aa"/><use transform="matrix(0.06172839506172839,0,0,0.06172839506172839,29.50617283950617,0)" xlink:href="#Q"/><use transform="matrix(0.06172839506172839,0,0,0.06172839506172839,35.67901234567901,0)" xlink:href="#U"/><use transform="matrix(0.06172839506172839,0,0,0.06172839506172839,46.79012345679013,0)" xlink:href="#U"/><use transform="matrix(0.06172839506172839,0,0,0.06172839506172839,57.90123456790124,0)" xlink:href="#Q"/><use transform="matrix(0.06172839506172839,0,0,0.06172839506172839,64.07407407407408,0)" xlink:href="#au"/></g><g id="E"><use transform="matrix(0.06172839506172839,0,0,0.06172839506172839,0,0)" xlink:href="#aB"/><use transform="matrix(0.06172839506172839,0,0,0.06172839506172839,15.987654320987653,0)" xlink:href="#am"/><use transform="matrix(0.06172839506172839,0,0,0.06172839506172839,27.098765432098766,0)" xlink:href="#am"/></g><path fill="#3a414a" d="M110-14l48 5v9H32v-9l48-5v-192l-48 17v-10l69-39h9v224" id="aD"/><use transform="matrix(0.06172839506172839,0,0,0.06172839506172839,0,0)" xlink:href="#aD" id="F"/><path fill="#3a414a" d="M24-231c66-21 156 2 128 81C132-92 78-66 39-27h121V0H16v-26l59-54c26-25 47-47 47-97 0-48-47-57-81-37l-6 29H24v-46" id="aE"/><use transform="matrix(0.06172839506172839,0,0,0.06172839506172839,0,0)" xlink:href="#aE" id="G"/><path fill="#3a414a" d="M45-37c13 0 21 8 21 21C67-2 57 4 45 5 33 4 23-2 24-16c0-13 8-21 21-21" id="aF"/><g id="H"><use transform="matrix(0.06172839506172839,0,0,0.06172839506172839,0,0)" xlink:href="#aF"/><use transform="matrix(0.06172839506172839,0,0,0.06172839506172839,5.555555555555555,0)" xlink:href="#aF"/><use transform="matrix(0.06172839506172839,0,0,0.06172839506172839,11.11111111111111,0)" xlink:href="#aF"/><use transform="matrix(0.06172839506172839,0,0,0.06172839506172839,16.666666666666664,0)" xlink:href="#aF"/><use transform="matrix(0.06172839506172839,0,0,0.06172839506172839,22.22222222222222,0)" xlink:href="#aF"/><use transform="matrix(0.06172839506172839,0,0,0.06172839506172839,27.77777777777778,0)" xlink:href="#aF"/></g><g id="I"><use transform="matrix(0.06172839506172839,0,0,0.06172839506172839,0,0)" xlink:href="#aq"/><use transform="matrix(0.06172839506172839,0,0,0.06172839506172839,14.814814814814813,0)" xlink:href="#O"/><use transform="matrix(0.06172839506172839,0,0,0.06172839506172839,24.629629629629626,0)" xlink:href="#U"/><use transform="matrix(0.06172839506172839,0,0,0.06172839506172839,35.74074074074073,0)" xlink:href="#aa"/><use transform="matrix(0.06172839506172839,0,0,0.06172839506172839,41.913580246913575,0)" xlink:href="#O"/><use transform="matrix(0.06172839506172839,0,0,0.06172839506172839,51.72839506172839,0)" xlink:href="#W"/></g><g id="J"><use transform="matrix(0.06172839506172839,0,0,0.06172839506172839,0,0)" xlink:href="#ay"/><use transform="matrix(0.06172839506172839,0,0,0.06172839506172839,14.814814814814813,0)" xlink:href="#O"/><use transform="matrix(0.06172839506172839,0,0,0.06172839506172839,24.629629629629626,0)" xlink:href="#V"/><use transform="matrix(0.06172839506172839,0,0,0.06172839506172839,34.44444444444444,0)" xlink:href="#R"/></g><g id="K"><use transform="matrix(0.06172839506172839,0,0,0.06172839506172839,0,0)" xlink:href="#Y"/><use transform="matrix(0.06172839506172839,0,0,0.06172839506172839,15.987654320987653,0)" xlink:href="#aq"/></g><g id="L"><use transform="matrix(0.06172839506172839,0,0,0.06172839506172839,0,0)" xlink:href="#Y"/><use transform="matrix(0.06172839506172839,0,0,0.06172839506172839,15.987654320987653,0)" xlink:href="#V"/><use transform="matrix(0.06172839506172839,0,0,0.06172839506172839,25.80246913580247,0)" xlink:href="#aa"/><use transform="matrix(0.06172839506172839,0,0,0.06172839506172839,31.975308641975307,0)" xlink:href="#V"/></g></defs></g></svg>