<svg xmlns="http://www.w3.org/2000/svg" xmlns:xlink="http://www.w3.org/1999/xlink" xmlns:lucid="lucid" width="1706" height="736"><g transform="translate(1620 -401)" lucid:page-tab-id="2VA.F4~bzETF"><path d="M-963.64 946.1a6 6 0 0 1 6-6H-766a6 6 0 0 1 6 6v48a6 6 0 0 1-6 6h-191.64a6 6 0 0 1-6-6z" fill="#ffd9d9"/><path d="M-760 940.1h-197.64a6 6 0 0 0-6 6v48a6 6 0 0 0 6 6H-760" stroke="#3a414a" fill="none"/><use xlink:href="#a" transform="matrix(1,0,0,1,-922.908603305887,952.1119509737282) translate(22.086419753086417 17.77777777777778)"/><use xlink:href="#b" transform="matrix(1,0,0,1,-922.908603305887,952.1119509737282) translate(0.23456790123456983 44.44444444444444)"/><use xlink:href="#c" transform="matrix(1,0,0,1,-922.908603305887,952.1119509737282) translate(47.58024691358025 44.44444444444444)"/><path d="M-699.96 946.1a6 6 0 0 1 6-6h168a6 6 0 0 1 6 6v48.15a6 6 0 0 1-6 6h-168a6 6 0 0 1-6-6z" stroke="#3a414a" fill="#cfe4ff"/><use xlink:href="#d" transform="matrix(1,0,0,1,-679.9636250366141,940.1119509737282) translate(5.802469135802468 34.94444444444444)"/><use xlink:href="#e" transform="matrix(1,0,0,1,-679.9636250366141,940.1119509737282) translate(66.72839506172839 34.94444444444444)"/><path d="M-1160 1006.25a6 6 0 0 1 6-6h148a6 6 0 0 1 6 6v88.06a6 6 0 0 1-6 6h-148a6 6 0 0 1-6-6z" stroke="#3a414a" fill="#c3f7c8"/><use xlink:href="#f" transform="matrix(1,0,0,1,-1139.999390495995,1000.2518896908884) translate(10.432098765432102 41.611111111111114)"/><use xlink:href="#g" transform="matrix(1,0,0,1,-1139.999390495995,1000.2518896908884) translate(67.77777777777779 41.611111111111114)"/><use xlink:href="#h" transform="matrix(1,0,0,1,-1139.999390495995,1000.2518896908884) translate(15.740740740740733 68.27777777777777)"/><g opacity=".4"><path d="M-1160 806a6 6 0 0 1 6-6h148a6 6 0 0 1 6 6v88.06a6 6 0 0 1-6 6h-148a6 6 0 0 1-6-6z" stroke="#3a414a" fill="#dfe3e8"/><use xlink:href="#i" transform="matrix(1,0,0,1,-1139.999390495995,800) translate(16.01851851851852 41.611111111111114)"/><use xlink:href="#j" transform="matrix(1,0,0,1,-1139.999390495995,800) translate(62.19135802469136 41.611111111111114)"/><use xlink:href="#k" transform="matrix(1,0,0,1,-1139.999390495995,800) translate(13.79629629629629 68.27777777777777)"/></g><g opacity=".4"><path d="M-480 1006.3a6 6 0 0 1 6-6h168a6 6 0 0 1 6 6v88a6 6 0 0 1-6 6h-168a6 6 0 0 1-6-6z" stroke="#3a414a" fill="#c3f7c8"/><use xlink:href="#l" transform="matrix(1,0,0,1,-459.9990857439927,1000.3078651777525) translate(29.382716049382708 54.44444444444444)"/></g><g opacity=".4" stroke="#3a414a"><path d="M-999.04 850.03h131.22a6 6 0 0 1 6 6v67.2" fill="none"/><path d="M-999.02 850.53h-.52v-1h.52z" stroke-width=".05" fill="#3a414a"/><path d="M-861.82 938l-4.63-14.27h9.27z" fill="#3a414a"/></g><path d="M-999.04 1050.28h131.22a6 6 0 0 0 6-6v-27.32" stroke="#3a414a" fill="none"/><path d="M-999.02 1050.78h-.52v-1h.52z" stroke="#3a414a" stroke-width=".05" fill="#3a414a"/><path d="M-861.82 1002.2l4.64 14.26h-9.27z" stroke="#3a414a" fill="#3a414a"/><path d="M-759.54 970.1h29.27a.03.03 0 0 1 .04.05.03.03 0 0 0 .03.03h13.4" stroke="#3a414a" fill="none"/><path d="M-759.52 970.6h-.52v-1h.52z" stroke="#3a414a" stroke-width=".05" fill="#3a414a"/><path d="M-702.05 970.18l-14.26 4.64v-9.27z" stroke="#3a414a" fill="#3a414a"/><g opacity=".4" stroke="#3a414a"><path d="M-609.96 1001.22v43.1a6 6 0 0 0 6 6h107.1" fill="none"/><path d="M-609.46 1001.23h-1v-.5l1-.02z" stroke-width=".05" fill="#3a414a"/><path d="M-482.08 1050.3l-14.27 4.64v-9.27z" fill="#3a414a"/></g><path d="M-480 806a6 6 0 0 1 6-6h168a6 6 0 0 1 6 6v48a6 6 0 0 1-6 6h-168a6 6 0 0 1-6-6z" fill="#ffdda6"/><path d="M-300 800h-174a6 6 0 0 0-6 6v48a6 6 0 0 0 6 6h174" stroke="#3a414a" fill="none"/><use xlink:href="#m" transform="matrix(1,0,0,1,-444.0001645653289,812) translate(0.2654320987654373 17.77777777777778)"/><use xlink:href="#n" transform="matrix(1,0,0,1,-444.0001645653289,812) translate(13.413580246913583 44.44444444444444)"/><path d="M-480 886a6 6 0 0 1 6-6h168a6 6 0 0 1 6 6v48a6 6 0 0 1-6 6h-168a6 6 0 0 1-6-6z" fill="#ffdda6"/><path d="M-300 880h-174a6 6 0 0 0-6 6v48a6 6 0 0 0 6 6h174" stroke="#3a414a" fill="none"/><use xlink:href="#o" transform="matrix(1,0,0,1,-444.0001645653289,892) translate(26.314814814814817 17.77777777777778)"/><use xlink:href="#n" transform="matrix(1,0,0,1,-444.0001645653289,892) translate(13.413580246913583 44.44444444444444)"/><path d="M-609.96 939.15V836a6 6 0 0 1 6-6h107.1" stroke="#3a414a" fill="none"/><path d="M-609.46 939.65h-1v-.5h1z" stroke="#3a414a" stroke-width=".05" fill="#3a414a"/><path d="M-482.08 830l-14.27 4.64v-9.28z" stroke="#3a414a" fill="#3a414a"/><path d="M-609.96 939.15V916a6 6 0 0 1 6-6h107.1" stroke="#3a414a" fill="none"/><path d="M-609.46 939.65h-1v-.5h1z" stroke="#3a414a" stroke-width=".05" fill="#3a414a"/><path d="M-482.08 910l-14.27 4.64v-9.28z" stroke="#3a414a" fill="#3a414a"/><path d="M-2.36 800c3.3 0 6 2.7 6 6v48c0 3.3-2.7 6-6 6H-154c-3.3 0-6-2.7-6-6v-48c0-3.3 2.7-6 6-6z" stroke="#3a414a" fill="#ffd9d9"/><use xlink:href="#p" transform="matrix(1,0,0,1,-139.99999999999977,800) translate(34.56172839506173 34.44444444444444)"/><use xlink:href="#q" transform="matrix(1,0,0,1,-139.99999999999977,800) translate(78.32716049382717 34.44444444444444)"/><path d="M15.82 840c3.3 0 6 2.7 6 6v48c0 3.3-2.7 6-6 6h-151.64c-3.3 0-6-2.7-6-6v-48c0-3.3 2.7-6 6-6z" stroke="#3a414a" fill="#ffd9d9"/><use xlink:href="#p" transform="matrix(1,0,0,1,-121.81818181818156,840) translate(34.56172839506173 34.44444444444444)"/><use xlink:href="#r" transform="matrix(1,0,0,1,-121.81818181818156,840) translate(78.32716049382717 34.44444444444444)"/><path d="M34 880c3.3 0 6 2.7 6 6v48c0 3.3-2.7 6-6 6h-151.64c-3.3 0-6-2.7-6-6v-48c0-3.3 2.7-6 6-6z" stroke="#3a414a" fill="#ffd9d9"/><use xlink:href="#s" transform="matrix(1,0,0,1,-103.63636363636351,880) translate(45.33333333333333 34.44444444444444)"/><path d="M-279.54 851.06a6 6 0 0 1 6-6h43.04a6 6 0 0 0 6-6v-12.98a2.3 2.3 0 0 1 4-1.54l36.95 41.04a6.67 6.67 0 0 1 0 8.92l-36.94 41.04a2.3 2.3 0 0 1-4-1.54v-12.98a6 6 0 0 0-6-6h-43.04a6 6 0 0 1-6-6z" stroke="#3a414a" fill="#ffdda6"/><path d="M-963.64 586.1a6 6 0 0 1 6-6H-766a6 6 0 0 1 6 6v48a6 6 0 0 1-6 6h-191.64a6 6 0 0 1-6-6z" fill="#ffd9d9"/><path d="M-760 580.1h-197.64a6 6 0 0 0-6 6v48a6 6 0 0 0 6 6H-760" stroke="#3a414a" fill="none"/><use xlink:href="#a" transform="matrix(1,0,0,1,-922.9092128098921,592.1119509737282) translate(22.086419753086417 17.77777777777778)"/><use xlink:href="#b" transform="matrix(1,0,0,1,-922.9092128098921,592.1119509737282) translate(0.23456790123456983 44.44444444444444)"/><use xlink:href="#c" transform="matrix(1,0,0,1,-922.9092128098921,592.1119509737282) translate(47.58024691358025 44.44444444444444)"/><path d="M-699.96 586.1a6 6 0 0 1 6-6h168a6 6 0 0 1 6 6v48.15a6 6 0 0 1-6 6h-168a6 6 0 0 1-6-6z" stroke="#3a414a" fill="#cfe4ff"/><use xlink:href="#d" transform="matrix(1,0,0,1,-679.9642345406191,580.1119509737282) translate(5.802469135802468 34.94444444444444)"/><use xlink:href="#e" transform="matrix(1,0,0,1,-679.9642345406191,580.1119509737282) translate(66.72839506172839 34.94444444444444)"/><g opacity=".4"><path d="M-1160 646.25a6 6 0 0 1 6-6h148a6 6 0 0 1 6 6v88.06a6 6 0 0 1-6 6h-148a6 6 0 0 1-6-6z" stroke="#3a414a" fill="#c3f7c8"/><use xlink:href="#f" transform="matrix(1,0,0,1,-1140,640.2518896908884) translate(10.432098765432102 41.611111111111114)"/><use xlink:href="#g" transform="matrix(1,0,0,1,-1140,640.2518896908884) translate(67.77777777777779 41.611111111111114)"/><use xlink:href="#h" transform="matrix(1,0,0,1,-1140,640.2518896908884) translate(15.740740740740733 68.27777777777777)"/></g><path d="M-1160 446a6 6 0 0 1 6-6h148a6 6 0 0 1 6 6v88.06a6 6 0 0 1-6 6h-148a6 6 0 0 1-6-6z" stroke="#3a414a" fill="#dfe3e8"/><use xlink:href="#i" transform="matrix(1,0,0,1,-1140,440) translate(16.01851851851852 41.611111111111114)"/><use xlink:href="#j" transform="matrix(1,0,0,1,-1140,440) translate(62.19135802469136 41.611111111111114)"/><use xlink:href="#k" transform="matrix(1,0,0,1,-1140,440) translate(13.79629629629629 68.27777777777777)"/><path d="M-480 646.3a6 6 0 0 1 6-6h168a6 6 0 0 1 6 6v88a6 6 0 0 1-6 6h-168a6 6 0 0 1-6-6z" stroke="#3a414a" fill="#c3f7c8"/><use xlink:href="#l" transform="matrix(1,0,0,1,-459.9996952479974,640.3078651777525) translate(29.382716049382708 54.44444444444444)"/><path d="M-999.04 490.03h131.22a6 6 0 0 1 6 6v67.2" stroke="#3a414a" fill="none"/><path d="M-999.02 490.53h-.52v-1h.52z" stroke="#3a414a" stroke-width=".05" fill="#3a414a"/><path d="M-861.82 578l-4.63-14.27h9.27z" stroke="#3a414a" fill="#3a414a"/><g opacity=".4" stroke="#3a414a"><path d="M-999.04 690.28h131.22a6 6 0 0 0 6-6v-27.32" fill="none"/><path d="M-999.02 690.78h-.52v-1h.52z" stroke-width=".05" fill="#3a414a"/><path d="M-861.82 642.2l4.64 14.26h-9.27z" fill="#3a414a"/></g><path d="M-759.54 610.1h29.27a.03.03 0 0 1 .04.05.03.03 0 0 0 .03.03h13.4" stroke="#3a414a" fill="none"/><path d="M-759.52 610.6h-.52v-1h.52z" stroke="#3a414a" stroke-width=".05" fill="#3a414a"/><path d="M-702.05 610.18l-14.26 4.64v-9.27z" stroke="#3a414a" fill="#3a414a"/><path d="M-609.96 641.22v43.1a6 6 0 0 0 6 6h107.1" stroke="#3a414a" fill="none"/><path d="M-609.46 641.23h-1v-.5l1-.02z" stroke="#3a414a" stroke-width=".05" fill="#3a414a"/><path d="M-482.08 690.3l-14.27 4.64v-9.27z" stroke="#3a414a" fill="#3a414a"/><g opacity=".4"><path d="M-480 446a6 6 0 0 1 6-6h168a6 6 0 0 1 6 6v48a6 6 0 0 1-6 6h-168a6 6 0 0 1-6-6z" fill="#ffdda6"/><path d="M-300 440h-174a6 6 0 0 0-6 6v48a6 6 0 0 0 6 6h174" stroke="#3a414a" fill="none"/><use xlink:href="#m" transform="matrix(1,0,0,1,-444.00077406933394,452) translate(0.2654320987654373 17.77777777777778)"/><use xlink:href="#n" transform="matrix(1,0,0,1,-444.00077406933394,452) translate(13.413580246913583 44.44444444444444)"/></g><g opacity=".4"><path d="M-480 526a6 6 0 0 1 6-6h168a6 6 0 0 1 6 6v48a6 6 0 0 1-6 6h-168a6 6 0 0 1-6-6z" fill="#ffdda6"/><path d="M-300 520h-174a6 6 0 0 0-6 6v48a6 6 0 0 0 6 6h174" stroke="#3a414a" fill="none"/><use xlink:href="#o" transform="matrix(1,0,0,1,-444.00077406933394,532) translate(26.314814814814817 17.77777777777778)"/><use xlink:href="#n" transform="matrix(1,0,0,1,-444.00077406933394,532) translate(13.413580246913583 44.44444444444444)"/></g><g opacity=".4" stroke="#3a414a"><path d="M-609.96 579.15V476a6 6 0 0 1 6-6h107.1" fill="none"/><path d="M-609.46 579.65h-1v-.5h1z" stroke-width=".05" fill="#3a414a"/><path d="M-482.08 470l-14.27 4.64v-9.28z" fill="#3a414a"/></g><g opacity=".4" stroke="#3a414a"><path d="M-609.96 579.15V556a6 6 0 0 1 6-6h107.1" fill="none"/><path d="M-609.46 579.65h-1v-.5h1z" stroke-width=".05" fill="#3a414a"/><path d="M-482.08 550l-14.27 4.64v-9.28z" fill="#3a414a"/></g><g opacity=".4"><path d="M-2.36 440c3.3 0 6 2.7 6 6v48c0 3.3-2.7 6-6 6H-154c-3.3 0-6-2.7-6-6v-48c0-3.3 2.7-6 6-6z" stroke="#3a414a" fill="#ffd9d9"/><use xlink:href="#p" transform="matrix(1,0,0,1,-140.00060950400473,440) translate(34.56172839506173 34.44444444444444)"/><use xlink:href="#q" transform="matrix(1,0,0,1,-140.00060950400473,440) translate(78.32716049382717 34.44444444444444)"/></g><g opacity=".4"><path d="M15.82 480c3.3 0 6 2.7 6 6v48c0 3.3-2.7 6-6 6h-151.64c-3.3 0-6-2.7-6-6v-48c0-3.3 2.7-6 6-6z" stroke="#3a414a" fill="#ffd9d9"/><use xlink:href="#p" transform="matrix(1,0,0,1,-121.81879132218648,480) translate(34.56172839506173 34.44444444444444)"/><use xlink:href="#r" transform="matrix(1,0,0,1,-121.81879132218648,480) translate(78.32716049382717 34.44444444444444)"/></g><g opacity=".4"><path d="M34 520c3.3 0 6 2.7 6 6v48c0 3.3-2.7 6-6 6h-151.64c-3.3 0-6-2.7-6-6v-48c0-3.3 2.7-6 6-6z" stroke="#3a414a" fill="#ffd9d9"/><use xlink:href="#s" transform="matrix(1,0,0,1,-103.63697314036847,520) translate(45.33333333333333 34.44444444444444)"/></g><g opacity=".4"><path d="M-279.54 491.06a6 6 0 0 1 6-6h43.04a6 6 0 0 0 6-6v-12.98a2.3 2.3 0 0 1 4-1.54l36.95 41.04a6.67 6.67 0 0 1 0 8.92l-36.94 41.04a2.3 2.3 0 0 1-4-1.54v-12.98a6 6 0 0 0-6-6h-43.04a6 6 0 0 1-6-6z" stroke="#3a414a" fill="#ffdda6"/></g><g filter="url(#t)"><path d="M-1580 786.08a6 6 0 0 1 6-6h268a6 6 0 0 1 6 6v48a6 6 0 0 1-6 6h-268a6 6 0 0 1-6-6z" fill="#f2f2ff"/><path d="M-1300 780.08h-274a6 6 0 0 0-6 6v48a6 6 0 0 0 6 6h274" stroke="#3a414a" fill="none"/><use xlink:href="#u" transform="matrix(1,0,0,1,-1524,792.0839632302961) translate(19.648148148148152 22.444444444444443)"/><use xlink:href="#v" transform="matrix(1,0,0,1,-1524,792.0839632302961) translate(78.16666666666666 22.444444444444443)"/></g><g filter="url(#w)"><path d="M-1580 706.08a6 6 0 0 1 6-6h268a6 6 0 0 1 6 6v48.06a6 6 0 0 1-6 6h-268a6 6 0 0 1-6-6z" fill="#f2f2ff"/><path d="M-1300 700.08h-274a6 6 0 0 0-6 6v48.06a6 6 0 0 0 6 6h274" stroke="#3a414a" fill="none"/><use xlink:href="#x" transform="matrix(1,0,0,1,-1524,712.095158327669) translate(7.3950617283950635 22.944444444444443)"/><use xlink:href="#y" transform="matrix(1,0,0,1,-1524,712.095158327669) translate(102.64197530864196 22.944444444444443)"/></g><g filter="url(#z)"><path d="M-1234.54 864.25a6 6 0 0 1 8.5 0l12.72 12.73a6 6 0 0 0 8.48 0l11.44-11.44a1.66 1.66 0 0 1 2.78 1.58l-11 43.85a10.02 10.02 0 0 1-7.3 7.28l-43.84 11a1.66 1.66 0 0 1-1.58-2.77l11.45-11.44a6 6 0 0 0 0-8.5l-12.72-12.72a6 6 0 0 1 0-8.48z" stroke="#3a414a" fill="#f2f2ff"/></g><g filter="url(#A)"><path d="M-1256.04 654.83a6 6 0 0 1 0-8.5l13.15-13.13a6 6 0 0 0 0-8.48l-11.44-11.45a1.66 1.66 0 0 1 1.58-2.78l43.85 11a10.02 10.02 0 0 1 7.27 7.28l11 43.86a1.66 1.66 0 0 1-2.77 1.57l-11.44-11.43a6 6 0 0 0-8.48 0l-13.15 13.14a6 6 0 0 1-8.48 0z" stroke="#3a414a" fill="#f2f2ff"/></g><path d="M-1178.5 770.15h5.95m11.9 0h11.9m11.88 0h11.9m11.9 0h11.88m11.9 0h11.9m11.9 0h11.9m11.88 0h11.9m11.9 0h11.9m11.88 0h11.9m11.9 0h11.88m11.9 0h11.9m11.9 0h11.88m11.9 0h11.9m11.88 0h11.9m11.9 0h11.9m11.88 0h11.9m11.9 0h11.88m11.9 0h11.9m11.9 0h11.88m11.9 0h11.9m11.88 0h11.9m11.9 0H-673m11.9 0h11.9m11.9 0h11.88m11.9 0h11.9m11.88 0h11.9m11.9 0h11.9m11.88 0h11.9m11.9 0h11.88m11.9 0h11.9m11.9 0h11.88m11.9 0h11.9m11.88 0h11.9m11.9 0h11.9m11.88 0h11.9m11.9 0h11.88m11.9 0h11.9m11.9 0h11.88m11.9 0h11.9m11.88 0h11.9m11.9 0h11.9m11.88 0h11.9m11.9 0h11.88m11.9 0h11.9m11.9 0h11.88m11.9 0h11.9m11.88 0h11.9m11.9 0h11.88m11.9 0h11.9m11.9 0h11.88m11.9 0h11.9m11.88 0h11.9m11.9 0h5.94M-1178.46 770.15h-1.54M58.46 770.15H60" stroke="#3a414a" stroke-width="3" fill="none"/><defs><path fill="#3a414a" d="M178-68c0 79-95 82-154 59v-54h12c1 35 22 52 60 52 50 0 69-58 33-82-39-24-105-21-105-85 0-67 86-66 142-53v49h-12l-6-29c-31-27-121-7-89 42 28 43 119 24 119 101" id="B"/><path fill="#3a414a" d="M54-38c-1 25 24 26 44 20v12C71 10 25 9 25-35v-115H4c-2-14 14-10 21-15l18-38h11v38h38v15H54v112" id="C"/><path fill="#3a414a" d="M32-163c41-10 102-14 102 39v112c8 3 24-2 21 12h-45l-4-17C83 13 3 13 13-46c-2-50 45-50 92-51 4-36-5-70-42-56-6 2-12 4-16 6-4 7 0 23-15 20v-36zM42-47c0 41 41 33 63 22v-59c-34 1-63-1-63 37" id="D"/><path fill="#3a414a" d="M125-118c4-37-41-34-68-26v132l23 4v8H8C5-13 21-9 28-12v-141c-7-3-23 1-20-12h47l2 13c31-23 98-29 98 31v109c7 3 23-1 20 12h-72v-8l22-4v-106" id="E"/><path fill="#3a414a" d="M13-81c0-71 46-101 114-85l-1-72-28-4v-8h57v238c8 3 24-2 21 12h-47l-2-12C80 23 13-1 13-81zm77-74c-37 1-44 33-45 74 0 38 9 66 45 66 14 0 27-3 36-7v-130c-10-1-24-3-36-3" id="F"/><path fill="#3a414a" d="M57-145c16-10 35-24 60-25v45c-19 1-8-30-40-17l-20 6v124l29 4v8H7v-8l21-4v-141c-8-3-24 2-21-12h48" id="G"/><g id="a"><use transform="matrix(0.06172839506172839,0,0,0.06172839506172839,0,0)" xlink:href="#B"/><use transform="matrix(0.06172839506172839,0,0,0.06172839506172839,12.345679012345679,0)" xlink:href="#C"/><use transform="matrix(0.06172839506172839,0,0,0.06172839506172839,18.51851851851852,0)" xlink:href="#D"/><use transform="matrix(0.06172839506172839,0,0,0.06172839506172839,28.333333333333336,0)" xlink:href="#E"/><use transform="matrix(0.06172839506172839,0,0,0.06172839506172839,39.44444444444444,0)" xlink:href="#F"/><use transform="matrix(0.06172839506172839,0,0,0.06172839506172839,50.55555555555556,0)" xlink:href="#D"/><use transform="matrix(0.06172839506172839,0,0,0.06172839506172839,60.370370370370374,0)" xlink:href="#G"/><use transform="matrix(0.06172839506172839,0,0,0.06172839506172839,67.71604938271605,0)" xlink:href="#F"/></g><path fill="#3a414a" d="M75-17c87 13 134-18 134-103 0-78-51-106-134-100v203zm171-102C246 5 139 7 10 0v-9l31-5v-208l-31-4v-10h107c82 0 129 35 129 117" id="H"/><g id="b"><use transform="matrix(0.06172839506172839,0,0,0.06172839506172839,0,0)" xlink:href="#H"/><use transform="matrix(0.06172839506172839,0,0,0.06172839506172839,15.987654320987653,0)" xlink:href="#D"/><use transform="matrix(0.06172839506172839,0,0,0.06172839506172839,25.80246913580247,0)" xlink:href="#C"/><use transform="matrix(0.06172839506172839,0,0,0.06172839506172839,31.975308641975307,0)" xlink:href="#D"/></g><path fill="#3a414a" d="M75-108c48 3 76-12 76-58s-28-57-76-54v112zm111-58c-1 60-46 78-111 74v78l37 5v9H13v-9l28-5v-208l-31-4v-10c81 1 178-14 176 70" id="I"/><path fill="#3a414a" d="M90-170c52 0 76 32 76 87 0 54-24 87-77 87-51 0-75-34-75-87 0-54 24-87 76-87zM89-10c39 0 46-35 46-73 0-39-7-73-46-73-39 1-44 34-44 73s6 72 44 73" id="J"/><path fill="#3a414a" d="M45-84c0 64 52 80 104 63 1 25-30 25-55 25-56 0-80-32-80-88 0-76 62-98 131-80v46h-10c-5-15-4-31-23-35-47-10-67 21-67 69" id="K"/><path fill="#3a414a" d="M65-12l28 4v8H7v-8l28-4v-226l-28-4v-8h58v238" id="L"/><g id="c"><use transform="matrix(0.06172839506172839,0,0,0.06172839506172839,0,0)" xlink:href="#I"/><use transform="matrix(0.06172839506172839,0,0,0.06172839506172839,12.345679012345679,0)" xlink:href="#G"/><use transform="matrix(0.06172839506172839,0,0,0.06172839506172839,19.691358024691358,0)" xlink:href="#J"/><use transform="matrix(0.06172839506172839,0,0,0.06172839506172839,30.80246913580247,0)" xlink:href="#C"/><use transform="matrix(0.06172839506172839,0,0,0.06172839506172839,36.97530864197531,0)" xlink:href="#J"/><use transform="matrix(0.06172839506172839,0,0,0.06172839506172839,48.08641975308642,0)" xlink:href="#K"/><use transform="matrix(0.06172839506172839,0,0,0.06172839506172839,57.901234567901234,0)" xlink:href="#J"/><use transform="matrix(0.06172839506172839,0,0,0.06172839506172839,69.01234567901234,0)" xlink:href="#L"/></g><path fill="#3a414a" d="M203-222l-32-4v-10h81v10l-31 4V0h-17L59-212v198l32 5v9H10v-9l31-5v-208l-31-4v-10h72L203-61v-161" id="M"/><path fill="#3a414a" d="M81-9v9H4v-9l26-5 81-224h33l83 224 30 5v9h-99v-9l31-5-23-68H73L49-14zm38-203L78-98h82" id="N"/><path fill="#3a414a" d="M55 0v-9l38-5v-207c-22 1-53 0-70 4l-5 37H7v-56h207v56h-12l-5-37-70-3v206l37 5v9H55" id="O"/><g id="d"><use transform="matrix(0.06172839506172839,0,0,0.06172839506172839,0,0)" xlink:href="#M"/><use transform="matrix(0.06172839506172839,0,0,0.06172839506172839,15.987654320987653,0)" xlink:href="#N"/><use transform="matrix(0.06172839506172839,0,0,0.06172839506172839,29.50617283950617,0)" xlink:href="#O"/><use transform="matrix(0.06172839506172839,0,0,0.06172839506172839,43.02469135802469,0)" xlink:href="#B"/></g><path fill="#3a414a" d="M108-235c-52 28-62 95-58 178 3 56 21 97 58 119v15C7 49-17-153 67-223c12-10 25-19 41-27v15" id="P"/><path fill="#3a414a" d="M238-236v10l-27 4-81 79L231-14l25 5v9h-57l-93-119-31 25v80l33 5v9H10v-9l31-5v-208l-31-4v-10h95v10l-30 4v111l112-111-23-4v-10h74" id="Q"/><path fill="#3a414a" d="M84-170c49 0 66 33 63 87H46c-8 60 38 80 95 63v10C128-2 108 4 88 4 34 4 14-29 14-84c-1-54 22-86 70-86zm33 73c12-57-57-82-69-24-1 7-2 15-2 24h71" id="R"/><path fill="#3a414a" d="M10 0v-8l90-143c-23 2-54-4-70 6-5 8 1 26-14 24v-44h122v8L47-14c29-2 65 3 86-8l9-35h8l-5 57H10" id="S"/><path fill="#3a414a" d="M12-250C113-222 137-19 52 49 40 59 28 69 12 77V62C56 37 70-16 70-87c0-70-13-123-58-148v-15" id="T"/><g id="e"><use transform="matrix(0.06172839506172839,0,0,0.06172839506172839,0,0)" xlink:href="#P"/><use transform="matrix(0.06172839506172839,0,0,0.06172839506172839,7.345679012345679,0)" xlink:href="#Q"/><use transform="matrix(0.06172839506172839,0,0,0.06172839506172839,23.333333333333332,0)" xlink:href="#D"/><use transform="matrix(0.06172839506172839,0,0,0.06172839506172839,33.148148148148145,0)" xlink:href="#G"/><use transform="matrix(0.06172839506172839,0,0,0.06172839506172839,40.49382716049382,0)" xlink:href="#R"/><use transform="matrix(0.06172839506172839,0,0,0.06172839506172839,50.30864197530864,0)" xlink:href="#S"/><use transform="matrix(0.06172839506172839,0,0,0.06172839506172839,60.123456790123456,0)" xlink:href="#T"/></g><path fill="#3a414a" d="M152 0h-7L59-203v189l32 5v9H10v-9l31-5v-208l-31-4v-10h72l76 180 84-180h68v10l-31 4v208l31 5v9h-96v-9l32-5v-189" id="U"/><path fill="#3a414a" d="M60-80l68-73c-7-3-20 0-17-12h58c3 13-13 9-20 12l-47 48 60 93c7 3 21-1 18 12h-68c-3-12 9-9 15-12L82-83 60-60v48c7 3 21-1 18 12H10v-8l21-4v-226l-24-4v-8h53v170" id="V"/><g id="f"><use transform="matrix(0.06172839506172839,0,0,0.06172839506172839,0,0)" xlink:href="#U"/><use transform="matrix(0.06172839506172839,0,0,0.06172839506172839,19.753086419753085,0)" xlink:href="#J"/><use transform="matrix(0.06172839506172839,0,0,0.06172839506172839,30.864197530864196,0)" xlink:href="#K"/><use transform="matrix(0.06172839506172839,0,0,0.06172839506172839,40.67901234567901,0)" xlink:href="#V"/></g><g id="g"><use transform="matrix(0.06172839506172839,0,0,0.06172839506172839,0,0)" xlink:href="#H"/><use transform="matrix(0.06172839506172839,0,0,0.06172839506172839,15.987654320987653,0)" xlink:href="#D"/><use transform="matrix(0.06172839506172839,0,0,0.06172839506172839,25.80246913580247,0)" xlink:href="#C"/><use transform="matrix(0.06172839506172839,0,0,0.06172839506172839,31.975308641975307,0)" xlink:href="#D"/></g><path fill="#3a414a" d="M52-115c0 90 69 126 140 93v-67l-30-5v-9h87v9l-23 5v77c-27 8-56 16-90 16C59 2 15-37 15-115c-1-82 41-123 122-123 31 0 59 4 83 10v51h-12l-5-29c-15-12-38-18-65-18-66-1-86 42-86 109" id="W"/><g id="h"><use transform="matrix(0.06172839506172839,0,0,0.06172839506172839,0,0)" xlink:href="#W"/><use transform="matrix(0.06172839506172839,0,0,0.06172839506172839,15.987654320987653,0)" xlink:href="#R"/><use transform="matrix(0.06172839506172839,0,0,0.06172839506172839,25.80246913580247,0)" xlink:href="#E"/><use transform="matrix(0.06172839506172839,0,0,0.06172839506172839,36.91358024691358,0)" xlink:href="#R"/><use transform="matrix(0.06172839506172839,0,0,0.06172839506172839,46.7283950617284,0)" xlink:href="#G"/><use transform="matrix(0.06172839506172839,0,0,0.06172839506172839,54.074074074074076,0)" xlink:href="#D"/><use transform="matrix(0.06172839506172839,0,0,0.06172839506172839,63.8888888888889,0)" xlink:href="#C"/><use transform="matrix(0.06172839506172839,0,0,0.06172839506172839,70.06172839506173,0)" xlink:href="#J"/><use transform="matrix(0.06172839506172839,0,0,0.06172839506172839,81.17283950617285,0)" xlink:href="#G"/></g><path fill="#3a414a" d="M199-173c-1 36-21 56-49 65l64 94 26 5v9h-57l-66-103H75v89l35 5v9H13v-9l28-5v-208l-31-4v-10c80 4 190-20 189 63zM75-119c50 2 89-1 89-51 0-49-39-52-89-50v101" id="X"/><g id="i"><use transform="matrix(0.06172839506172839,0,0,0.06172839506172839,0,0)" xlink:href="#X"/><use transform="matrix(0.06172839506172839,0,0,0.06172839506172839,14.814814814814813,0)" xlink:href="#R"/><use transform="matrix(0.06172839506172839,0,0,0.06172839506172839,24.629629629629626,0)" xlink:href="#D"/><use transform="matrix(0.06172839506172839,0,0,0.06172839506172839,34.44444444444444,0)" xlink:href="#L"/></g><g id="j"><use transform="matrix(0.06172839506172839,0,0,0.06172839506172839,0,0)" xlink:href="#H"/><use transform="matrix(0.06172839506172839,0,0,0.06172839506172839,15.987654320987653,0)" xlink:href="#D"/><use transform="matrix(0.06172839506172839,0,0,0.06172839506172839,25.80246913580247,0)" xlink:href="#C"/><use transform="matrix(0.06172839506172839,0,0,0.06172839506172839,31.975308641975307,0)" xlink:href="#R"/></g><path fill="#3a414a" d="M52-115c0 93 80 130 150 87l7-35h11l-1 55c-23 7-52 12-83 12C60 4 19-37 15-115c-5-113 97-141 201-114l1 51h-12l-5-30c-15-9-39-16-62-16-66 0-86 41-86 109" id="Y"/><g id="k"><use transform="matrix(0.06172839506172839,0,0,0.06172839506172839,0,0)" xlink:href="#Y"/><use transform="matrix(0.06172839506172839,0,0,0.06172839506172839,14.814814814814813,0)" xlink:href="#J"/><use transform="matrix(0.06172839506172839,0,0,0.06172839506172839,25.925925925925924,0)" xlink:href="#E"/><use transform="matrix(0.06172839506172839,0,0,0.06172839506172839,37.03703703703704,0)" xlink:href="#E"/><use transform="matrix(0.06172839506172839,0,0,0.06172839506172839,48.14814814814815,0)" xlink:href="#R"/><use transform="matrix(0.06172839506172839,0,0,0.06172839506172839,57.96296296296297,0)" xlink:href="#K"/><use transform="matrix(0.06172839506172839,0,0,0.06172839506172839,67.77777777777779,0)" xlink:href="#C"/><use transform="matrix(0.06172839506172839,0,0,0.06172839506172839,73.95061728395062,0)" xlink:href="#J"/><use transform="matrix(0.06172839506172839,0,0,0.06172839506172839,85.06172839506173,0)" xlink:href="#G"/></g><path fill="#3a414a" d="M256-236v10l-26 4L135 5h-9L31-222l-27-4v-10h95v10l-31 4 71 174 71-174-31-4v-10h77" id="Z"/><path fill="#3a414a" d="M47-200c-23 0-25-39 0-38 13 0 18 7 20 19-1 11-8 19-20 19zM65-12l28 4v8H8v-8l28-4v-141l-24-4v-8h53v153" id="aa"/><g id="l"><use transform="matrix(0.06172839506172839,0,0,0.06172839506172839,0,0)" xlink:href="#Z"/><use transform="matrix(0.06172839506172839,0,0,0.06172839506172839,13.518518518518517,0)" xlink:href="#D"/><use transform="matrix(0.06172839506172839,0,0,0.06172839506172839,23.333333333333332,0)" xlink:href="#L"/><use transform="matrix(0.06172839506172839,0,0,0.06172839506172839,29.50617283950617,0)" xlink:href="#aa"/><use transform="matrix(0.06172839506172839,0,0,0.06172839506172839,35.67901234567901,0)" xlink:href="#F"/><use transform="matrix(0.06172839506172839,0,0,0.06172839506172839,46.79012345679013,0)" xlink:href="#D"/><use transform="matrix(0.06172839506172839,0,0,0.06172839506172839,56.604938271604944,0)" xlink:href="#C"/><use transform="matrix(0.06172839506172839,0,0,0.06172839506172839,62.777777777777786,0)" xlink:href="#J"/><use transform="matrix(0.06172839506172839,0,0,0.06172839506172839,73.8888888888889,0)" xlink:href="#G"/></g><path fill="#3a414a" d="M126-118c4-37-42-32-68-25v131l24 4v8H8C5-13 21-9 28-12v-141c-7-3-23 1-20-12h48l1 13c22-15 77-30 92 2 32-22 104-36 104 29v109c8 3 24-2 21 12h-75v-8l25-4v-106c3-39-45-31-72-24 7 37 1 88 3 130l25 4v8h-78v-8l24-4v-106" id="ab"/><path fill="#3a414a" d="M13-71v-27h94v27H13" id="ac"/><path fill="#3a414a" d="M41-130c7 48 86 23 86 84 0 56-69 57-112 41v-40c20 0 9 29 31 31 35 19 77-26 41-50-27-18-72-13-72-59 0-50 58-52 100-41v36c-19 1-8-25-28-25-21-7-50-1-46 23" id="ad"/><g id="m"><use transform="matrix(0.06172839506172839,0,0,0.06172839506172839,0,0)" xlink:href="#O"/><use transform="matrix(0.06172839506172839,0,0,0.06172839506172839,12.716049382716047,0)" xlink:href="#aa"/><use transform="matrix(0.06172839506172839,0,0,0.06172839506172839,18.888888888888886,0)" xlink:href="#ab"/><use transform="matrix(0.06172839506172839,0,0,0.06172839506172839,36.172839506172835,0)" xlink:href="#R"/><use transform="matrix(0.06172839506172839,0,0,0.06172839506172839,45.98765432098765,0)" xlink:href="#ac"/><use transform="matrix(0.06172839506172839,0,0,0.06172839506172839,53.33333333333333,0)" xlink:href="#B"/><use transform="matrix(0.06172839506172839,0,0,0.06172839506172839,65.67901234567901,0)" xlink:href="#R"/><use transform="matrix(0.06172839506172839,0,0,0.06172839506172839,75.49382716049382,0)" xlink:href="#G"/><use transform="matrix(0.06172839506172839,0,0,0.06172839506172839,82.8395061728395,0)" xlink:href="#aa"/><use transform="matrix(0.06172839506172839,0,0,0.06172839506172839,89.01234567901234,0)" xlink:href="#R"/><use transform="matrix(0.06172839506172839,0,0,0.06172839506172839,98.82716049382715,0)" xlink:href="#ad"/></g><path fill="#3a414a" d="M53-14c58 12 82-15 82-73 0-52-35-77-82-58v131zM89 4C64 4 42-2 24-9v-229l-24-4v-8h53l-1 94c48-33 114-4 114 69 0 57-23 91-77 91" id="ae"/><g id="n"><use transform="matrix(0.06172839506172839,0,0,0.06172839506172839,0,0)" xlink:href="#H"/><use transform="matrix(0.06172839506172839,0,0,0.06172839506172839,15.987654320987653,0)" xlink:href="#D"/><use transform="matrix(0.06172839506172839,0,0,0.06172839506172839,25.80246913580247,0)" xlink:href="#C"/><use transform="matrix(0.06172839506172839,0,0,0.06172839506172839,31.975308641975307,0)" xlink:href="#D"/><use transform="matrix(0.06172839506172839,0,0,0.06172839506172839,41.79012345679012,0)" xlink:href="#ae"/><use transform="matrix(0.06172839506172839,0,0,0.06172839506172839,52.90123456790123,0)" xlink:href="#D"/><use transform="matrix(0.06172839506172839,0,0,0.06172839506172839,62.716049382716044,0)" xlink:href="#ad"/><use transform="matrix(0.06172839506172839,0,0,0.06172839506172839,71.35802469135803,0)" xlink:href="#R"/></g><path fill="#3a414a" d="M166-85c3 67-44 102-111 85l1 64 29 4v9H6v-9l21-4v-217c-7-3-22 1-19-12h46l1 9c11-8 26-14 45-14 47 2 64 36 66 85zM56-13c53 14 83-14 78-72 7-53-33-79-78-60v132" id="af"/><path fill="#3a414a" d="M126-119c3-38-42-31-69-25v132l23 4v8H7v-8l21-4v-226l-24-4v-8h53l-1 98c31-22 99-31 99 31v109c7 3 23-1 20 12h-71v-8l22-4v-107" id="ag"/><g id="o"><use transform="matrix(0.06172839506172839,0,0,0.06172839506172839,0,0)" xlink:href="#W"/><use transform="matrix(0.06172839506172839,0,0,0.06172839506172839,15.987654320987653,0)" xlink:href="#G"/><use transform="matrix(0.06172839506172839,0,0,0.06172839506172839,23.333333333333332,0)" xlink:href="#D"/><use transform="matrix(0.06172839506172839,0,0,0.06172839506172839,33.148148148148145,0)" xlink:href="#af"/><use transform="matrix(0.06172839506172839,0,0,0.06172839506172839,44.25925925925925,0)" xlink:href="#ag"/></g><g id="p"><use transform="matrix(0.06172839506172839,0,0,0.06172839506172839,0,0)" xlink:href="#N"/><use transform="matrix(0.06172839506172839,0,0,0.06172839506172839,15.987654320987653,0)" xlink:href="#af"/><use transform="matrix(0.06172839506172839,0,0,0.06172839506172839,27.098765432098766,0)" xlink:href="#af"/></g><path fill="#3a414a" d="M110-14l48 5v9H32v-9l48-5v-192l-48 17v-10l69-39h9v224" id="ah"/><use transform="matrix(0.06172839506172839,0,0,0.06172839506172839,0,0)" xlink:href="#ah" id="q"/><path fill="#3a414a" d="M24-231c66-21 156 2 128 81C132-92 78-66 39-27h121V0H16v-26l59-54c26-25 47-47 47-97 0-48-47-57-81-37l-6 29H24v-46" id="ai"/><use transform="matrix(0.06172839506172839,0,0,0.06172839506172839,0,0)" xlink:href="#ai" id="r"/><path fill="#3a414a" d="M45-37c13 0 21 8 21 21C67-2 57 4 45 5 33 4 23-2 24-16c0-13 8-21 21-21" id="aj"/><g id="s"><use transform="matrix(0.06172839506172839,0,0,0.06172839506172839,0,0)" xlink:href="#aj"/><use transform="matrix(0.06172839506172839,0,0,0.06172839506172839,5.555555555555555,0)" xlink:href="#aj"/><use transform="matrix(0.06172839506172839,0,0,0.06172839506172839,11.11111111111111,0)" xlink:href="#aj"/><use transform="matrix(0.06172839506172839,0,0,0.06172839506172839,16.666666666666664,0)" xlink:href="#aj"/><use transform="matrix(0.06172839506172839,0,0,0.06172839506172839,22.22222222222222,0)" xlink:href="#aj"/><use transform="matrix(0.06172839506172839,0,0,0.06172839506172839,27.77777777777778,0)" xlink:href="#aj"/></g><path fill="#3a414a" d="M106-76c4 61-43 93-98 74v-43h11c2 18 5 33 28 33 16 0 25-11 25-33v-177l-30-4v-10h91v10l-27 4v146" id="ak"/><path fill="#3a414a" d="M130-224c-62 0-78 43-78 106 0 64 16 108 78 108s78-45 78-108-16-106-78-106zm0 228C53 4 15-39 15-118c-1-80 37-120 115-120s115 42 115 120C245-39 207 4 130 4" id="al"/><g id="u"><use transform="matrix(0.06172839506172839,0,0,0.06172839506172839,0,0)" xlink:href="#ak"/><use transform="matrix(0.06172839506172839,0,0,0.06172839506172839,8.641975308641975,0)" xlink:href="#B"/><use transform="matrix(0.06172839506172839,0,0,0.06172839506172839,20.98765432098765,0)" xlink:href="#al"/><use transform="matrix(0.06172839506172839,0,0,0.06172839506172839,36.9753086419753,0)" xlink:href="#M"/></g><g id="v"><use transform="matrix(0.06172839506172839,0,0,0.06172839506172839,0,0)" xlink:href="#B"/><use transform="matrix(0.06172839506172839,0,0,0.06172839506172839,12.345679012345679,0)" xlink:href="#K"/><use transform="matrix(0.06172839506172839,0,0,0.06172839506172839,22.160493827160494,0)" xlink:href="#ag"/><use transform="matrix(0.06172839506172839,0,0,0.06172839506172839,33.27160493827161,0)" xlink:href="#R"/><use transform="matrix(0.06172839506172839,0,0,0.06172839506172839,43.086419753086425,0)" xlink:href="#ab"/><use transform="matrix(0.06172839506172839,0,0,0.06172839506172839,60.370370370370374,0)" xlink:href="#D"/></g><filter id="t" filterUnits="objectBoundingBox" x="-.04" y="-.07" width="1.07" height="1.33"><feOffset result="offOut" in="SourceAlpha" dy="6"/><feGaussianBlur result="blurOut" in="offOut" stdDeviation="5"/><feColorMatrix result="colorOut" in="blurOut" values="0 0 0 0 0 0 0 0 0 0 0 0 0 0 0 0 0 0 0.5019607843137255 0"/><feBlend in="SourceGraphic" in2="colorOut"/></filter><path fill="#3a414a" d="M103-236c-39-15-35 32-34 71h44v15H69v136l35 6v8H15v-8l25-6v-136H11v-9l29-7c-6-59 23-100 80-84v36c-15 2-12-14-17-22" id="am"/><g id="x"><use transform="matrix(0.06172839506172839,0,0,0.06172839506172839,0,0)" xlink:href="#X"/><use transform="matrix(0.06172839506172839,0,0,0.06172839506172839,14.814814814814813,0)" xlink:href="#R"/><use transform="matrix(0.06172839506172839,0,0,0.06172839506172839,24.629629629629626,0)" xlink:href="#am"/><use transform="matrix(0.06172839506172839,0,0,0.06172839506172839,31.9753086419753,0)" xlink:href="#R"/><use transform="matrix(0.06172839506172839,0,0,0.06172839506172839,41.79012345679012,0)" xlink:href="#G"/><use transform="matrix(0.06172839506172839,0,0,0.06172839506172839,49.1358024691358,0)" xlink:href="#R"/><use transform="matrix(0.06172839506172839,0,0,0.06172839506172839,58.95061728395061,0)" xlink:href="#E"/><use transform="matrix(0.06172839506172839,0,0,0.06172839506172839,70.06172839506172,0)" xlink:href="#K"/><use transform="matrix(0.06172839506172839,0,0,0.06172839506172839,79.87654320987653,0)" xlink:href="#R"/></g><g id="y"><use transform="matrix(0.06172839506172839,0,0,0.06172839506172839,0,0)" xlink:href="#U"/><use transform="matrix(0.06172839506172839,0,0,0.06172839506172839,19.753086419753085,0)" xlink:href="#J"/><use transform="matrix(0.06172839506172839,0,0,0.06172839506172839,30.864197530864196,0)" xlink:href="#F"/><use transform="matrix(0.06172839506172839,0,0,0.06172839506172839,41.9753086419753,0)" xlink:href="#R"/><use transform="matrix(0.06172839506172839,0,0,0.06172839506172839,51.79012345679012,0)" xlink:href="#L"/></g><filter id="w" filterUnits="objectBoundingBox" x="-.04" y="-.07" width="1.07" height="1.33"><feOffset result="offOut" in="SourceAlpha" dy="6"/><feGaussianBlur result="blurOut" in="offOut" stdDeviation="5"/><feColorMatrix result="colorOut" in="blurOut" values="0 0 0 0 0 0 0 0 0 0 0 0 0 0 0 0 0 0 0.5019607843137255 0"/><feBlend in="SourceGraphic" in2="colorOut"/></filter><filter id="z" filterUnits="objectBoundingBox" x="-.09" y="-.04" width="1.18" height="1.18"><feOffset result="offOut" in="SourceAlpha" dy="6"/><feGaussianBlur result="blurOut" in="offOut" stdDeviation="5"/><feColorMatrix result="colorOut" in="blurOut" values="0 0 0 0 0 0 0 0 0 0 0 0 0 0 0 0 0 0 0.5019607843137255 0"/><feBlend in="SourceGraphic" in2="colorOut"/></filter><filter id="A" filterUnits="objectBoundingBox" x="-.09" y="-.04" width="1.18" height="1.18"><feOffset result="offOut" in="SourceAlpha" dy="6"/><feGaussianBlur result="blurOut" in="offOut" stdDeviation="5"/><feColorMatrix result="colorOut" in="blurOut" values="0 0 0 0 0 0 0 0 0 0 0 0 0 0 0 0 0 0 0.5019607843137255 0"/><feBlend in="SourceGraphic" in2="colorOut"/></filter></defs></g></svg>